<svg xmlns="http://www.w3.org/2000/svg" xmlns:xlink="http://www.w3.org/1999/xlink"><symbol id="eye" viewBox="0 0 22 18">
<path d="M21.0893 8.56255C20.2846 6.68884 18.8815 5.06553 17.0529 3.89264L20.4271 0.883836L19.4339 0L0.703125 16.6675L1.69637 17.5514L5.28895 14.3608C6.89253 15.1924 8.70931 15.6435 10.5651 15.6709C12.8612 15.594 15.0816 14.9202 16.952 13.7326C18.8224 12.5451 20.2607 10.8958 21.0893 8.9888C21.1452 8.85108 21.1452 8.70027 21.0893 8.56255ZM10.5651 12.8501C9.59413 12.8497 8.64875 12.5729 7.86715 12.0603L9.15626 10.9257C9.69077 11.1863 10.3058 11.2857 10.9092 11.2089C11.5125 11.1321 12.0716 10.8833 12.5026 10.4998C12.9336 10.1163 13.2132 9.61875 13.2995 9.08186C13.3858 8.54497 13.2742 7.99765 12.9813 7.52201L14.2563 6.38744C14.7526 6.99396 15.0507 7.71078 15.1177 8.45866C15.1847 9.20654 15.018 9.95634 14.636 10.6252C14.254 11.294 13.6715 11.8558 12.9531 12.2484C12.2347 12.6411 11.4082 12.8493 10.5651 12.8501Z"/>
<path d="M2.48634 12.4179L6.00849 9.28373C5.99017 9.11501 5.98312 8.94546 5.98736 8.776C5.98922 7.69591 6.47223 6.66053 7.33051 5.89679C8.1888 5.13305 9.35235 4.70326 10.5662 4.7016C10.7522 4.70248 10.938 4.71294 11.1227 4.73294L13.7854 2.36979C12.7491 2.05305 11.6619 1.88794 10.5662 1.88086C8.27008 1.95769 6.04962 2.63152 4.17923 3.81907C2.30883 5.00662 0.870489 6.65583 0.0419661 8.56287C-0.0139887 8.70059 -0.0139887 8.8514 0.0419661 8.98912C0.582987 10.2695 1.41513 11.4368 2.48634 12.4179Z"/>
</symbol><symbol id="trash" viewBox="0 0 17 18">
<path d="M8.7496 0C9.593 -5.87059e-07 10.4041 0.288453 11.0152 0.805698C11.6263 1.32294 11.9907 2.02941 12.0328 2.77896L12.0369 2.92523H16.1461C16.3556 2.92543 16.5571 2.9968 16.7094 3.12476C16.8617 3.25272 16.9534 3.4276 16.9656 3.61367C16.9779 3.79975 16.9099 3.98297 16.7754 4.12591C16.641 4.26884 16.4503 4.3607 16.2423 4.38272L16.1461 4.38784H15.4484L14.4786 15.0305C14.4161 15.7173 14.0653 16.3579 13.4961 16.825C12.9268 17.2921 12.1809 17.5514 11.4066 17.5514H6.09261C5.31831 17.5514 4.57237 17.2921 4.00315 16.825C3.43393 16.3579 3.08315 15.7173 3.02059 15.0305L2.05 4.38784H1.35309C1.15179 4.38781 0.957505 4.32205 0.807081 4.20303C0.656656 4.084 0.560554 3.91999 0.537003 3.74209L0.53125 3.65653C0.531277 3.47741 0.605179 3.30453 0.73894 3.17067C0.872701 3.03682 1.05702 2.9513 1.25693 2.93034L1.35309 2.92523H5.46226C5.46226 2.14941 5.8086 1.40536 6.4251 0.856779C7.0416 0.308193 7.87774 0 8.7496 0ZM6.90047 6.76458C6.75152 6.76459 6.60762 6.81259 6.49536 6.8997C6.38311 6.98682 6.31011 7.10716 6.28985 7.23847L6.2841 7.31306V13.1635L6.28985 13.2381C6.31015 13.3694 6.38317 13.4897 6.49542 13.5768C6.60767 13.6639 6.75155 13.7118 6.90047 13.7118C7.04939 13.7118 7.19327 13.6639 7.30552 13.5768C7.41777 13.4897 7.4908 13.3694 7.5111 13.2381L7.51685 13.1635V7.31306L7.5111 7.23847C7.49084 7.10716 7.41783 6.98682 7.30558 6.8997C7.19333 6.81259 7.04942 6.76459 6.90047 6.76458ZM10.5987 6.76458C10.4498 6.76459 10.3059 6.81259 10.1936 6.8997C10.0814 6.98682 10.0084 7.10716 9.98811 7.23847L9.98235 7.31306V13.1635L9.98811 13.2381C10.0084 13.3694 10.0814 13.4897 10.1937 13.5768C10.3059 13.6639 10.4498 13.7118 10.5987 13.7118C10.7476 13.7118 10.8915 13.6639 11.0038 13.5768C11.116 13.4897 11.1891 13.3694 11.2094 13.2381L11.2151 13.1635V7.31306L11.2094 7.23847C11.1891 7.10716 11.1161 6.98682 11.0038 6.8997C10.8916 6.81259 10.7477 6.76459 10.5987 6.76458ZM8.7496 1.46261C8.33492 1.4625 7.93552 1.60186 7.63145 1.85276C7.32739 2.10367 7.14114 2.44757 7.11004 2.81553L7.10593 2.92523H10.3933L10.3892 2.81553C10.3581 2.44757 10.1718 2.10367 9.86775 1.85276C9.56368 1.60186 9.16428 1.4625 8.7496 1.46261Z"/>
</symbol></svg>