<svg width="646" height="704" viewBox="0 0 646 704" fill="none" xmlns="http://www.w3.org/2000/svg">
<path d="M110.655 289.259L64.0234 383.408L80.0032 391.323L126.635 297.174L110.655 289.259Z" stroke="#E7E7E7" stroke-width="4" stroke-miterlimit="10"/>
<path d="M3.07031 506.473L11.0256 510.413L19.0501 514.387L379.391 692.861L389.421 697.829L395.302 700.742L421.033 648.79L405.122 640.91L387.306 676.881L218.515 593.281L229.342 571.421L223.047 568.303L212.22 590.163L26.9648 498.408L59.2401 433.243L43.2603 425.329L3.07031 506.473Z" stroke="#E7E7E7" stroke-width="4" stroke-miterlimit="10"/>
<path d="M560.276 367.656L560.961 366.273L638.977 208.758L633.097 205.845L632.682 205.64L461.124 120.668L458.863 125.234L458.006 126.964L424.806 193.996L421.688 200.291L427.983 203.409L432.687 205.738L435.805 199.443L431.101 197.113L464.301 130.081L506.983 151.221L473.783 218.253L469.079 215.924L465.961 222.219L470.665 224.549L476.96 227.666L480.078 221.371L513.278 154.339L629.564 211.935L554.666 363.155L545.051 358.392L438.38 305.559L455.683 270.625L449.388 267.507L432.085 302.441L383.731 278.492L375.816 294.472L453.778 333.086L430.651 379.78L437.015 382.932L460.143 336.238L537.136 374.372L521.992 404.948L537.903 412.828L560.276 367.656Z" stroke="#E7E7E7" stroke-width="4" stroke-miterlimit="10"/>
<path d="M447.369 555.615L425.887 598.988L441.866 606.903L463.349 563.529L447.369 555.615Z" stroke="#E7E7E7" stroke-width="4" stroke-miterlimit="10"/>
<path d="M501.23 446.869L468.133 513.693L484.113 521.608L517.21 454.783L501.23 446.869Z" stroke="#E7E7E7" stroke-width="4" stroke-miterlimit="10"/>
<path d="M243.629 20.7835L168.731 172.003L168.046 173.387L131.453 247.268L147.433 255.182L176.796 195.898L332.858 273.194L340.773 257.215L321.819 247.827L348.783 193.385L342.488 190.267L315.524 244.709L184.711 179.918L175.026 175.121L249.924 23.9014L390.422 93.4887L363.594 147.654L369.889 150.772L396.717 96.6066L414.979 105.652L418.097 99.3568L253.042 17.6063L246.747 14.4884L243.629 20.7835Z" stroke="#E7E7E7" stroke-width="4" stroke-miterlimit="10"/>
<path d="M395.823 354.433L348.437 330.963L346.154 329.833L342.142 327.845L322.27 367.968L243.477 328.943L211.545 393.415L290.337 432.44L241.581 530.879L247.876 533.996L345.319 337.258L392.705 360.728L395.823 354.433Z" stroke="#E7E7E7" stroke-width="4" stroke-miterlimit="10"/>
<path d="M406.16 641.424L426.923 599.503" stroke="#E7E7E7" stroke-width="2" stroke-miterlimit="10"/>
<path d="M412.871 644.746L433.634 602.825" stroke="#E7E7E7" stroke-width="2" stroke-miterlimit="10"/>
<path d="M416.812 646.699L437.576 604.778" stroke="#E7E7E7" stroke-width="2" stroke-miterlimit="10"/>
<path d="M420.688 648.619L441.451 606.698" stroke="#E7E7E7" stroke-width="2" stroke-miterlimit="10"/>
<path d="M415.027 640.389L418.97 642.342" stroke="#E7E7E7" stroke-width="2" stroke-miterlimit="10"/>
<path d="M431.887 606.354L435.83 608.306" stroke="#E7E7E7" stroke-width="2" stroke-miterlimit="10"/>
<path d="M79.2436 390.946L58.4805 432.867" stroke="#E7E7E7" stroke-width="2" stroke-miterlimit="10"/>
<path d="M72.603 387.657L51.8398 429.578" stroke="#E7E7E7" stroke-width="2" stroke-miterlimit="10"/>
<path d="M68.6577 385.704L47.8945 427.625" stroke="#E7E7E7" stroke-width="2" stroke-miterlimit="10"/>
<path d="M64.7162 383.751L43.9531 425.672" stroke="#E7E7E7" stroke-width="2" stroke-miterlimit="10"/>
<path d="M70.4431 392.015L66.5 390.062" stroke="#E7E7E7" stroke-width="2" stroke-miterlimit="10"/>
<path d="M53.5876 426.051L49.6445 424.098" stroke="#E7E7E7" stroke-width="2" stroke-miterlimit="10"/>
<path d="M146.673 254.806L125.91 296.727" stroke="#E7E7E7" stroke-width="2" stroke-miterlimit="10"/>
<path d="M140.033 251.517L119.27 293.438" stroke="#E7E7E7" stroke-width="2" stroke-miterlimit="10"/>
<path d="M136.087 249.563L115.324 291.484" stroke="#E7E7E7" stroke-width="2" stroke-miterlimit="10"/>
<path d="M132.146 247.61L111.383 289.531" stroke="#E7E7E7" stroke-width="2" stroke-miterlimit="10"/>
<path d="M137.838 255.943L133.895 253.99" stroke="#E7E7E7" stroke-width="2" stroke-miterlimit="10"/>
<path d="M121.017 289.91L117.074 287.957" stroke="#E7E7E7" stroke-width="2" stroke-miterlimit="10"/>
<path d="M448.406 556.129L469.169 514.208" stroke="#E7E7E7" stroke-width="2" stroke-miterlimit="10"/>
<path d="M455.117 559.451L475.88 517.53" stroke="#E7E7E7" stroke-width="2" stroke-miterlimit="10"/>
<path d="M459.059 561.404L479.822 519.483" stroke="#E7E7E7" stroke-width="2" stroke-miterlimit="10"/>
<path d="M462.934 563.324L483.697 521.403" stroke="#E7E7E7" stroke-width="2" stroke-miterlimit="10"/>
<path d="M457.309 555.025L461.252 556.978" stroke="#E7E7E7" stroke-width="2" stroke-miterlimit="10"/>
<path d="M474.133 521.059L478.076 523.012" stroke="#E7E7E7" stroke-width="2" stroke-miterlimit="10"/>
<path d="M502.266 447.383L523.029 405.462" stroke="#E7E7E7" stroke-width="2" stroke-miterlimit="10"/>
<path d="M508.977 450.705L529.74 408.784" stroke="#E7E7E7" stroke-width="2" stroke-miterlimit="10"/>
<path d="M512.918 452.658L533.681 410.737" stroke="#E7E7E7" stroke-width="2" stroke-miterlimit="10"/>
<path d="M516.793 454.578L537.556 412.657" stroke="#E7E7E7" stroke-width="2" stroke-miterlimit="10"/>
<path d="M511.168 446.279L515.111 448.232" stroke="#E7E7E7" stroke-width="2" stroke-miterlimit="10"/>
<path d="M527.992 412.312L531.935 414.265" stroke="#E7E7E7" stroke-width="2" stroke-miterlimit="10"/>
<path d="M163.518 566.043L173.009 546.881L79.4127 500.524L67.5762 465.285L75.2853 449.72L56.4693 440.401" stroke="#E7E7E7" stroke-width="2" stroke-miterlimit="10"/>
<path d="M79.4126 500.524L69.9219 519.686" stroke="#E7E7E7" stroke-width="2" stroke-miterlimit="10"/>
<path d="M67.5777 465.284L48.7617 455.965" stroke="#E7E7E7" stroke-width="2" stroke-miterlimit="10"/>
<path d="M84.0508 384.541L102.59 393.723L143.568 310.988" stroke="#E7E7E7" stroke-width="2" stroke-miterlimit="10"/>
<path d="M124.477 301.531L153.738 316.024L186.288 250.307L203.252 244.581L279.761 282.475L294.254 253.213" stroke="#E7E7E7" stroke-width="2" stroke-miterlimit="10"/>
<path d="M269.799 442.425L256.059 470.165C255.374 471.548 253.719 472.107 252.336 471.422L220.791 455.798C219.408 455.113 218.849 453.458 219.534 452.074L233.274 424.334C233.959 422.951 235.614 422.392 236.997 423.077L268.542 438.701C269.925 439.386 270.484 441.041 269.799 442.425Z" stroke="#E7E7E7" stroke-miterlimit="10"/>
<path d="M276.995 427.9L272.267 437.446C271.581 438.83 269.926 439.388 268.543 438.703L236.998 423.079C235.615 422.394 235.056 420.739 235.741 419.355L240.47 409.809C241.155 408.425 242.81 407.867 244.193 408.552L275.738 424.176C277.121 424.861 277.68 426.516 276.995 427.9Z" stroke="#E7E7E7" stroke-miterlimit="10"/>
<path d="M233.205 424.302L219.466 452.042C218.78 453.425 217.125 453.984 215.742 453.299L184.197 437.675C182.814 436.99 182.255 435.335 182.94 433.951L196.68 406.211C197.365 404.828 199.02 404.269 200.404 404.954L231.948 420.578C233.332 421.263 233.89 422.918 233.205 424.302Z" stroke="#E7E7E7" stroke-miterlimit="10"/>
<path d="M240.401 409.775L235.673 419.321C234.987 420.705 233.332 421.263 231.949 420.578L200.404 404.954C199.021 404.269 198.462 402.614 199.148 401.23L203.876 391.684C204.561 390.3 206.216 389.742 207.6 390.427L239.144 406.051C240.528 406.736 241.086 408.391 240.401 409.775Z" stroke="#E7E7E7" stroke-miterlimit="10"/>
<path d="M196.611 406.177L182.872 433.917C182.187 435.3 180.532 435.859 179.148 435.174L147.604 419.55C146.22 418.865 145.661 417.21 146.347 415.826L160.086 388.086C160.771 386.703 162.426 386.144 163.81 386.829L195.354 402.453C196.738 403.138 197.297 404.793 196.611 406.177Z" stroke="#E7E7E7" stroke-miterlimit="10"/>
<path d="M167.28 373.557L146.346 415.824C145.661 417.208 144.005 417.766 142.622 417.081L134.459 413.038C133.076 412.353 132.517 410.698 133.202 409.314L154.137 367.047C154.822 365.664 156.477 365.105 157.86 365.791L166.023 369.834C167.338 370.485 167.965 372.174 167.28 373.557Z" stroke="#E7E7E7" stroke-miterlimit="10"/>
<path d="M203.807 391.65L199.079 401.196C198.394 402.58 196.739 403.138 195.355 402.453L163.811 386.829C162.427 386.144 161.869 384.489 162.554 383.105L167.282 373.559C167.967 372.175 169.622 371.617 171.006 372.302L202.55 387.926C203.934 388.611 204.492 390.266 203.807 391.65Z" stroke="#E7E7E7" stroke-miterlimit="10"/>
<path d="M226.323 365.843L214.125 390.47C213.44 391.854 211.785 392.412 210.402 391.727L157.897 365.722C156.513 365.036 155.954 363.381 156.64 361.998L168.837 337.371C169.522 335.988 171.177 335.429 172.561 336.114L225.066 362.119C226.45 362.805 227.008 364.46 226.323 365.843Z" stroke="#E7E7E7" stroke-miterlimit="10"/>
<path d="M253.558 475.216L232.384 517.967C231.698 519.351 230.043 519.91 228.66 519.224L197.115 503.601C195.732 502.915 195.173 501.26 195.858 499.877L217.033 457.126C217.718 455.742 219.373 455.184 220.757 455.869L252.301 471.493C253.685 472.178 254.243 473.833 253.558 475.216Z" stroke="#E7E7E7" stroke-miterlimit="10"/>
<path d="M144.223 420.115L145.079 418.386L146.809 419.242" stroke="#E7E7E7" stroke-miterlimit="10"/>
<path d="M150.267 420.955L215.708 453.367C217.092 454.053 217.65 455.708 216.965 457.091L195.791 499.842C195.105 501.226 193.45 501.785 192.067 501.099L123.928 467.351C122.544 466.665 121.986 465.01 122.671 463.627L143.331 421.913" stroke="#E7E7E7" stroke-miterlimit="10" stroke-dasharray="5.07 5.07"/>
<path d="M266.981 481.863L245.807 524.615C245.122 525.998 243.467 526.557 242.083 525.871L233.713 521.726C232.329 521.04 231.771 519.385 232.456 518.002L253.63 475.251C254.316 473.867 255.971 473.309 257.354 473.994L265.725 478.14C267.039 478.791 267.667 480.48 266.981 481.863Z" stroke="#E7E7E7" stroke-miterlimit="10"/>
<path d="M290.413 434.545L269.479 476.812C268.794 478.195 267.139 478.754 265.755 478.069L257.385 473.923C256.001 473.238 255.443 471.583 256.128 470.199L277.062 427.932C277.748 426.549 279.403 425.99 280.786 426.675L289.157 430.821C290.471 431.472 291.099 433.161 290.413 434.545Z" stroke="#E7E7E7" stroke-miterlimit="10"/>
<path d="M154.384 441.688L141.535 467.629L180.827 487.09L193.676 461.149L154.384 441.688Z" stroke="#E7E7E7" stroke-miterlimit="10"/>
<path d="M143.043 464.585L141.535 467.629L144.579 469.136L146.086 466.093L143.043 464.585Z" stroke="#E7E7E7" stroke-miterlimit="10"/>
<path d="M179.363 482.573L177.855 485.617L180.899 487.125L182.407 484.081L179.363 482.573Z" stroke="#E7E7E7" stroke-miterlimit="10"/>
<path d="M154.418 441.618L152.91 444.662L155.954 446.17L157.461 443.126L154.418 441.618Z" stroke="#E7E7E7" stroke-miterlimit="10"/>
<path d="M190.738 459.607L189.23 462.65L192.274 464.158L193.782 461.114L190.738 459.607Z" stroke="#E7E7E7" stroke-miterlimit="10"/>
<path d="M101.173 529.992L99.1172 534.143L154.251 561.45L156.307 557.299L101.173 529.992Z" stroke="#E7E7E7" stroke-miterlimit="10"/>
<path d="M226.67 576.816L218.207 593.902L310.489 639.609L318.951 622.522L226.67 576.816Z" stroke="#E7E7E7" stroke-miterlimit="10"/>
<path d="M312.127 625.173L307.844 633.82L309.02 634.403L313.303 625.756L312.127 625.173Z" stroke="#E7E7E7" stroke-miterlimit="10"/>
<path d="M307.532 624.706L303.969 631.9L306.113 632.963L309.677 625.768L307.532 624.706Z" stroke="#E7E7E7" stroke-miterlimit="10"/>
<path d="M307.379 621.185L302.445 631.146L303.898 631.866L308.832 621.905L307.379 621.185Z" stroke="#E7E7E7" stroke-miterlimit="10"/>
<path d="M304.614 619.816L299.68 629.777L301.132 630.497L306.066 620.535L304.614 619.816Z" stroke="#E7E7E7" stroke-miterlimit="10"/>
<path d="M302.65 620.478L298.367 629.125L299.682 629.776L303.964 621.129L302.65 620.478Z" stroke="#E7E7E7" stroke-miterlimit="10"/>
<path d="M299.574 619.903L295.668 627.789L297.121 628.509L301.027 620.622L299.574 619.903Z" stroke="#E7E7E7" stroke-miterlimit="10"/>
<path d="M296.914 619.707L293.453 626.693L295.667 627.79L299.127 620.803L296.914 619.707Z" stroke="#E7E7E7" stroke-miterlimit="10"/>
<path d="M288.161 615.112L284.598 622.307L286.535 623.266L290.098 616.072L288.161 615.112Z" stroke="#E7E7E7" stroke-miterlimit="10"/>
<path d="M287.258 613.113L283.078 621.553L284.6 622.307L288.78 613.867L287.258 613.113Z" stroke="#E7E7E7" stroke-miterlimit="10"/>
<path d="M283.731 611.367L279.551 619.807L280.45 620.252L284.63 611.813L283.731 611.367Z" stroke="#E7E7E7" stroke-miterlimit="10"/>
<path d="M283.101 609.505L278.305 619.189L279.55 619.806L284.347 610.121L283.101 609.505Z" stroke="#E7E7E7" stroke-miterlimit="10"/>
<path d="M279.918 607.583L274.984 617.545L276.645 618.367L281.578 608.406L279.918 607.583Z" stroke="#E7E7E7" stroke-miterlimit="10"/>
<path d="M274.808 607.637L270.902 615.523L272.355 616.243L276.261 608.357L274.808 607.637Z" stroke="#E7E7E7" stroke-miterlimit="10"/>
<path d="M272.218 607.474L268.758 614.461L270.902 615.523L274.363 608.536L272.218 607.474Z" stroke="#E7E7E7" stroke-miterlimit="10"/>
<path d="M264.859 615.719L272.808 599.67" stroke="#E7E7E7" stroke-miterlimit="10"/>
<path d="M227.914 577.433L228.711 578.259" stroke="#E7E7E7" stroke-miterlimit="10"/>
<path d="M230.339 580.013L262.089 613.485" stroke="#E7E7E7" stroke-miterlimit="10" stroke-dasharray="3.07 3.07"/>
<path d="M262.886 614.31L263.683 615.136" stroke="#E7E7E7" stroke-miterlimit="10"/>
<path d="M271.981 599.259L220.312 593.654" stroke="#E7E7E7" stroke-miterlimit="10" stroke-dasharray="3 3"/>
<path d="M297.08 434.66L248.496 532.752L287.235 551.939L335.819 453.847L297.08 434.66Z" stroke="#E7E7E7" stroke-miterlimit="10"/>
<path d="M345.944 337.567L297.668 435.037L335.853 453.95L384.129 356.48L345.944 337.567Z" stroke="#E7E7E7" stroke-miterlimit="10"/>
<path d="M299.02 528.142L268.236 512.896L264.081 500.586L272.452 504.732L268.236 512.896" stroke="#E7E7E7" stroke-miterlimit="10"/>
<path d="M372.651 379.481L341.868 364.235L330.765 368.04L330.457 368.662L337.997 372.397L341.868 364.235" stroke="#E7E7E7" stroke-miterlimit="10"/>
<path d="M369.536 377.94L378.479 359.884C379.267 358.293 378.638 356.432 377.047 355.643L349.999 342.247C348.408 341.459 346.546 342.087 345.758 343.678L335.856 363.67C335.856 363.67 335.344 365.226 336.866 365.98" stroke="#E7E7E7" stroke-miterlimit="10"/>
<path d="M295.908 526.601L287.274 544.033C286.28 546.039 283.797 546.877 281.791 545.884L256.334 533.275C254.328 532.281 253.49 529.799 254.484 527.793L263.975 508.631C263.975 508.631 265.143 507.142 266.388 507.759" stroke="#E7E7E7" stroke-miterlimit="10"/>
<path d="M344.621 655.223L441.79 459.038L484.679 480.281" stroke="#E7E7E7" stroke-miterlimit="10"/>
<path d="M473.24 504.767L429.797 483.25" stroke="#E7E7E7" stroke-miterlimit="10" stroke-dasharray="3 3"/>
<path d="M447.337 557.066L403.895 535.549" stroke="#E7E7E7" stroke-miterlimit="10" stroke-dasharray="3 3"/>
<path d="M427.259 597.603L383.816 576.086" stroke="#E7E7E7" stroke-miterlimit="10" stroke-dasharray="3 3"/>
<path d="M399.611 653.427L356.168 631.91" stroke="#E7E7E7" stroke-miterlimit="10" stroke-dasharray="3 3"/>
<path d="M352.34 633.204L342.473 653.127L345.101 654.429L354.969 634.506L352.34 633.204Z" stroke="#E7E7E7" stroke-miterlimit="10"/>
<path d="M353.436 630.989L341.684 654.717" stroke="#E7E7E7" stroke-miterlimit="10"/>
<path d="M346.604 640.785L345.062 643.898L346.654 644.686L348.195 641.574L346.604 640.785Z" stroke="#E7E7E7" stroke-miterlimit="10"/>
<path d="M437.997 460.263L428.129 480.186L430.758 481.488L440.625 461.565L437.997 460.263Z" stroke="#E7E7E7" stroke-miterlimit="10"/>
<path d="M439.092 458.048L427.34 481.775" stroke="#E7E7E7" stroke-miterlimit="10"/>
<path d="M432.225 467.914L430.684 471.027L432.275 471.815L433.816 468.702L432.225 467.914Z" stroke="#E7E7E7" stroke-miterlimit="10"/>
<path d="M384.162 575.393L387.3 556.186" stroke="#E7E7E7" stroke-miterlimit="10"/>
<path d="M403.347 536.656L390.176 550.377" stroke="#E7E7E7" stroke-miterlimit="10"/>
<path d="M420.713 582.471L431.129 561.441C431.574 560.542 432.712 560.158 433.611 560.603L440.529 564.029C441.428 564.475 441.812 565.613 441.367 566.512L430.951 587.541C430.506 588.441 429.368 588.825 428.469 588.379L421.551 584.953C420.617 584.404 420.268 583.37 420.713 582.471Z" stroke="#E7E7E7" stroke-miterlimit="10"/>
<path d="M434.529 566.227L426.512 582.414L432.046 585.155L440.063 568.968L434.529 566.227Z" stroke="#E7E7E7" stroke-miterlimit="10"/>
<path d="M434.529 566.227L426.512 582.414L428.103 583.202L436.12 567.015L434.529 566.227Z" stroke="#E7E7E7" stroke-miterlimit="10"/>
<path d="M423.661 585.913C423.661 585.913 428.125 579.509 423.352 577.145" stroke="#E7E7E7" stroke-miterlimit="10"/>
<path d="M435.685 561.632C435.685 561.632 433.297 569.063 428.523 566.699" stroke="#E7E7E7" stroke-miterlimit="10"/>
<path d="M411.136 615.373L397.294 643.32C396.54 644.842 394.678 645.471 393.156 644.717L409.774 611.166C411.261 611.989 411.89 613.851 411.136 615.373Z" stroke="#E7E7E7" stroke-miterlimit="10"/>
<path d="M403.468 623.55C401.258 623.317 399.087 624.395 398.059 626.47C397.031 628.546 397.489 630.926 399.014 632.543L403.468 623.55Z" stroke="#E7E7E7" stroke-miterlimit="10"/>
<path d="M402.023 634.121C404.269 634.458 406.612 633.379 407.674 631.234C408.737 629.09 408.175 626.572 406.546 624.99L402.023 634.121Z" stroke="#E7E7E7" stroke-miterlimit="10"/>
<path d="M364.401 663.815L375.197 660.978L371.823 645.179L360.373 648.467L364.401 663.815Z" stroke="#E7E7E7" stroke-miterlimit="10"/>
<path d="M364.332 654.907L370.494 659.51" stroke="#E7E7E7" stroke-miterlimit="10"/>
<path d="M386.064 659.037L383.117 664.986L388.029 667.419L390.975 661.47L386.064 659.037Z" stroke="#E7E7E7" stroke-miterlimit="10"/>
<path d="M387.54 656.063L386.066 659.037L390.978 661.47L392.451 658.495L387.54 656.063Z" stroke="#E7E7E7" stroke-miterlimit="10"/>
<path d="M408.655 606.821C410.509 603.077 408.977 598.538 405.233 596.684C401.489 594.829 396.95 596.361 395.096 600.105C393.242 603.85 394.773 608.388 398.518 610.243C402.262 612.097 406.8 610.565 408.655 606.821Z" stroke="#E7E7E7" stroke-miterlimit="10"/>
<path d="M398.379 601.301C397.899 602.269 398.318 603.511 399.287 603.99L403.022 605.841L404.838 602.174L401.103 600.324C400.1 599.914 398.859 600.333 398.379 601.301Z" stroke="#E7E7E7" stroke-miterlimit="10"/>
<path d="M403.28 601.491L401.602 604.881" stroke="#E7E7E7" stroke-miterlimit="10"/>
<path d="M403.706 603.941L402.461 603.324" stroke="#E7E7E7" stroke-miterlimit="10"/>
<path d="M347.549 616.96C347.001 618.067 345.622 618.59 344.446 618.008L331.095 611.395C329.988 610.847 329.465 609.468 330.047 608.292C330.596 607.185 331.975 606.662 333.151 607.244L346.502 613.857C347.608 614.405 348.132 615.784 347.549 616.96Z" stroke="#E7E7E7" stroke-miterlimit="10"/>
<path d="M360.432 590.949C359.884 592.055 358.505 592.578 357.329 591.996L343.978 585.383C342.871 584.835 342.348 583.456 342.93 582.28C343.478 581.173 344.857 580.65 346.033 581.233L359.384 587.845C360.491 588.394 361.014 589.773 360.432 590.949Z" stroke="#E7E7E7" stroke-miterlimit="10"/>
<path d="M333.567 607.449C333.567 607.449 331.491 606.248 332.998 603.205C334.506 600.161 340.81 587.432 340.81 587.432C340.81 587.432 342.214 584.424 344.566 585.589" stroke="#E7E7E7" stroke-miterlimit="10"/>
<path d="M347.413 617.237C347.413 617.237 349.701 619.749 352.743 620.566C355.784 621.383 358.185 617.403 358.905 615.951C359.624 614.498 366.477 600.663 366.477 600.663C366.477 600.663 368.872 594.957 366.033 592.862C363.194 590.767 360.433 590.95 360.433 590.95" stroke="#E7E7E7" stroke-miterlimit="10"/>
<path d="M340.107 584.156L329.794 604.978C329.382 605.808 328.348 606.157 327.518 605.746C326.688 605.335 326.339 604.3 326.75 603.47L337.063 582.648C337.474 581.818 338.508 581.469 339.339 581.88C340.169 582.291 340.518 583.326 340.107 584.156Z" stroke="#E7E7E7" stroke-miterlimit="10"/>
<path d="M331.088 590.888L329.684 593.725L331.205 594.478L332.61 591.642L331.088 590.888Z" stroke="#E7E7E7" stroke-miterlimit="10"/>
<path d="M335.655 593.148L334.25 595.984L336.118 596.909L337.523 594.073L335.655 593.148Z" stroke="#E7E7E7" stroke-miterlimit="10"/>
<path d="M398.944 513.197C398.395 514.303 397.016 514.827 395.84 514.244L382.489 507.631C381.383 507.083 380.859 505.704 381.442 504.528C381.99 503.421 383.369 502.898 384.545 503.481L397.896 510.093C399.003 510.642 399.526 512.021 398.944 513.197Z" stroke="#E7E7E7" stroke-miterlimit="10"/>
<path d="M411.826 487.185C411.278 488.292 409.899 488.815 408.723 488.232L395.372 481.62C394.265 481.071 393.742 479.693 394.325 478.516C394.873 477.41 396.252 476.887 397.428 477.469L410.779 484.082C411.886 484.63 412.409 486.009 411.826 487.185Z" stroke="#E7E7E7" stroke-miterlimit="10"/>
<path d="M384.961 503.685C384.961 503.685 382.885 502.485 384.393 499.441C385.9 496.397 392.205 483.669 392.205 483.669C392.205 483.669 393.609 480.66 395.961 481.825" stroke="#E7E7E7" stroke-miterlimit="10"/>
<path d="M398.808 513.473C398.808 513.473 401.096 515.985 404.137 516.802C407.178 517.619 409.58 513.64 410.299 512.187C411.019 510.734 417.871 496.899 417.871 496.899C417.871 496.899 420.267 491.194 417.428 489.098C414.589 487.003 411.828 487.186 411.828 487.186" stroke="#E7E7E7" stroke-miterlimit="10"/>
<path d="M391.501 480.392L381.188 501.214C380.777 502.044 379.743 502.393 378.913 501.982C378.082 501.571 377.733 500.537 378.144 499.707L388.457 478.884C388.869 478.054 389.903 477.705 390.733 478.116C391.563 478.528 391.912 479.562 391.501 480.392Z" stroke="#E7E7E7" stroke-miterlimit="10"/>
<path d="M382.483 487.125L381.078 489.961L382.6 490.715L384.005 487.878L382.483 487.125Z" stroke="#E7E7E7" stroke-miterlimit="10"/>
<path d="M387.049 489.384L385.645 492.221L387.512 493.146L388.917 490.31L387.049 489.384Z" stroke="#E7E7E7" stroke-miterlimit="10"/>
<path d="M460.806 494.043L457.277 501.168L468.553 506.753L472.082 499.628L460.806 494.043Z" stroke="#E7E7E7" stroke-miterlimit="10"/>
<path d="M468.927 477.648L465.398 484.773L476.674 490.358L480.203 483.233L468.927 477.648Z" stroke="#E7E7E7" stroke-miterlimit="10"/>
<path d="M376.059 596.967L361.395 626.574L371.01 631.337L385.674 601.729L376.059 596.967Z" stroke="#E7E7E7" stroke-miterlimit="10"/>
<path d="M365.586 620.725L362.879 626.189L369.174 629.307L371.881 623.842L365.586 620.725Z" stroke="#E7E7E7" stroke-miterlimit="10"/>
<path d="M376.448 598.795L366.203 619.479L371.461 622.082L381.705 601.399L376.448 598.795Z" stroke="#E7E7E7" stroke-miterlimit="10"/>
<path d="M382.674 601.879L372.43 622.562L373.675 623.179L383.919 602.495L382.674 601.879Z" stroke="#E7E7E7" stroke-miterlimit="10"/>
<path d="M446.684 364.633L523.193 402.527" stroke="#E7E7E7" stroke-miterlimit="10"/>
<path d="M485.359 386.201L521.539 404.12" stroke="#E7E7E7" stroke-miterlimit="10"/>
<path d="M454.344 372.82L492.045 391.493" stroke="#E7E7E7" stroke-miterlimit="10"/>
<path d="M456.883 351.164L526.544 385.666" stroke="#E7E7E7" stroke-miterlimit="10"/>
<path d="M507.718 364.195L497.851 384.118C497.474 384.879 496.543 385.193 495.782 384.816C495.021 384.439 494.707 383.508 495.084 382.747L504.951 362.824C505.328 362.064 506.259 361.749 507.02 362.126C507.747 362.572 508.095 363.434 507.718 364.195Z" stroke="#E7E7E7" stroke-miterlimit="10"/>
<path d="M502.114 370.637L499.578 375.756L500.547 376.236L503.082 371.116L502.114 370.637Z" fill="#E7E7E7"/>
<path d="M526.671 373.584L516.804 393.507C516.427 394.267 515.496 394.582 514.735 394.205C513.974 393.828 513.66 392.897 514.037 392.136L523.904 372.213C524.281 371.452 525.212 371.138 525.973 371.515C526.7 371.961 527.048 372.823 526.671 373.584Z" stroke="#E7E7E7" stroke-miterlimit="10"/>
<path d="M521.067 380.025L518.531 385.145L519.5 385.624L522.035 380.505L521.067 380.025Z" fill="#E7E7E7"/>
<path d="M501.839 361.283L491.972 381.206C491.595 381.967 490.664 382.281 489.903 381.904C489.142 381.527 488.828 380.596 489.205 379.835L499.072 359.912C499.449 359.151 500.38 358.837 501.141 359.214C501.868 359.66 502.216 360.522 501.839 361.283Z" stroke="#E7E7E7" stroke-miterlimit="10"/>
<path d="M496.305 367.76L493.77 372.879L494.738 373.359L497.273 368.24L496.305 367.76Z" fill="#E7E7E7"/>
<path d="M496.582 358.679L486.714 378.602C486.337 379.363 485.406 379.677 484.645 379.3C483.884 378.924 483.57 377.993 483.947 377.232L493.815 357.309C494.191 356.548 495.122 356.234 495.883 356.611C496.61 357.057 496.959 357.918 496.582 358.679Z" stroke="#E7E7E7" stroke-miterlimit="10"/>
<path d="M490.977 365.121L488.441 370.24L489.41 370.72L491.945 365.601L490.977 365.121Z" fill="#E7E7E7"/>
<path d="M435.496 273.119L425.628 293.042C425.251 293.803 424.32 294.117 423.559 293.74C422.798 293.363 422.484 292.432 422.861 291.671L432.729 271.748C433.106 270.987 434.036 270.673 434.797 271.05C435.524 271.496 435.873 272.358 435.496 273.119Z" stroke="#E7E7E7" stroke-miterlimit="10"/>
<path d="M429.891 279.561L427.355 284.68L428.324 285.159L430.859 280.04L429.891 279.561Z" fill="#E7E7E7"/>
<path d="M430.168 270.48L420.3 290.403C419.923 291.164 418.992 291.478 418.231 291.101C417.47 290.724 417.156 289.793 417.533 289.032L427.401 269.11C427.777 268.349 428.708 268.034 429.469 268.411C430.265 268.892 430.545 269.719 430.168 270.48Z" stroke="#E7E7E7" stroke-miterlimit="10"/>
<path d="M424.633 276.957L422.098 282.076L423.066 282.556L425.602 277.437L424.633 276.957Z" fill="#E7E7E7"/>
<path d="M418.927 264.827L413.415 286.39C413.177 287.22 412.419 287.706 411.59 287.467C410.76 287.229 410.274 286.471 410.513 285.642L416.024 264.078C416.263 263.248 417.02 262.762 417.85 263.001C418.679 263.239 419.131 264.066 418.927 264.827Z" stroke="#E7E7E7" stroke-miterlimit="10"/>
<path d="M414.859 272.313L413.445 277.848L414.492 278.115L415.906 272.58L414.859 272.313Z" fill="#E7E7E7"/>
<path d="M412.322 262.158L399.133 280.091C398.618 280.783 397.686 280.925 396.994 280.409C396.301 279.894 396.16 278.963 396.675 278.27L409.864 260.337C410.379 259.645 411.311 259.503 412.003 260.018C412.696 260.534 412.837 261.465 412.322 262.158Z" stroke="#E7E7E7" stroke-miterlimit="10"/>
<path d="M405.751 267.53L402.367 272.133L403.238 272.773L406.622 268.171L405.751 267.53Z" fill="#E7E7E7"/>
<path d="M491.254 356.041L481.386 375.964C481.009 376.724 480.078 377.039 479.317 376.662C478.556 376.285 478.242 375.354 478.619 374.593L488.486 354.67C488.863 353.909 489.794 353.595 490.555 353.972C491.282 354.418 491.63 355.28 491.254 356.041Z" stroke="#E7E7E7" stroke-miterlimit="10"/>
<path d="M485.719 362.518L483.184 367.637L484.152 368.116L486.687 362.997L485.719 362.518Z" fill="#E7E7E7"/>
<path d="M220.959 143.084L201.036 133.217C200.275 132.84 199.961 131.909 200.338 131.148C200.714 130.387 201.645 130.073 202.406 130.449L222.329 140.317C223.09 140.694 223.404 141.625 223.028 142.386C222.651 143.147 221.72 143.461 220.959 143.084Z" stroke="#E7E7E7" stroke-miterlimit="10"/>
<path d="M214.502 137.479L209.383 134.943L208.903 135.912L214.022 138.447L214.502 137.479Z" fill="#E7E7E7"/>
<path d="M214.517 156.088L194.594 146.22C193.834 145.844 193.519 144.913 193.896 144.152C194.273 143.391 195.204 143.076 195.965 143.453L215.888 153.321C216.649 153.698 216.963 154.629 216.586 155.39C216.175 156.22 215.278 156.465 214.517 156.088Z" stroke="#E7E7E7" stroke-miterlimit="10"/>
<path d="M208.025 150.547L202.906 148.012L202.427 148.98L207.546 151.516L208.025 150.547Z" fill="#E7E7E7"/>
<path d="M205.302 174.697L185.38 164.83C184.619 164.453 184.304 163.522 184.681 162.761C185.058 162 185.989 161.686 186.75 162.063L206.673 171.93C207.434 172.307 207.748 173.238 207.371 173.999C206.994 174.76 206.063 175.074 205.302 174.697Z" stroke="#E7E7E7" stroke-miterlimit="10"/>
<path d="M198.857 169.121L193.738 166.586L193.259 167.554L198.378 170.09L198.857 169.121Z" fill="#E7E7E7"/>
<path d="M210.404 163.7L192.162 150.96C191.47 150.445 191.328 149.513 191.809 148.89C192.324 148.198 193.256 148.056 193.879 148.537L212.121 161.276C212.814 161.792 212.955 162.723 212.474 163.347C211.959 164.039 211.027 164.181 210.404 163.7Z" stroke="#E7E7E7" stroke-miterlimit="10"/>
<path d="M204.853 157.28L200.164 154.018L199.547 154.905L204.236 158.168L204.853 157.28Z" fill="#E7E7E7"/>
<path d="M245.661 92.5163L227.419 79.7768C226.727 79.2616 226.585 78.33 227.066 77.7067C227.581 77.0143 228.513 76.8727 229.136 77.3537L247.378 90.0931C248.07 90.6084 248.212 91.54 247.731 92.1632C247.25 92.7865 246.284 92.9972 245.661 92.5163Z" stroke="#E7E7E7" stroke-miterlimit="10"/>
<path d="M240.099 86.0519L235.41 82.7891L234.793 83.6762L239.482 86.9391L240.099 86.0519Z" fill="#E7E7E7"/>
<path d="M264.091 55.2986L245.849 42.5592C245.157 42.0439 245.015 41.1123 245.496 40.4891C246.011 39.7966 246.943 39.655 247.566 40.136L265.808 52.8755C266.501 53.3907 266.642 54.3223 266.161 54.9455C265.68 55.5688 264.749 55.7104 264.091 55.2986Z" stroke="#E7E7E7" stroke-miterlimit="10"/>
<path d="M258.525 48.8097L253.836 45.5469L253.219 46.434L257.908 49.6969L258.525 48.8097Z" fill="#E7E7E7"/>
<path d="M256.867 70.7579L235.679 63.9676C234.849 63.7291 234.432 62.8331 234.705 62.107C234.944 61.2776 235.84 60.8599 236.566 61.1334L257.754 67.9236C258.584 68.1622 259.001 69.0582 258.728 69.7842C258.524 70.5445 257.697 70.9964 256.867 70.7579Z" stroke="#E7E7E7" stroke-miterlimit="10"/>
<path d="M249.744 66.228L244.305 64.4824L243.974 65.5115L249.414 67.2571L249.744 66.228Z" fill="#E7E7E7"/>
<path d="M223.459 138.033L203.536 128.166C202.775 127.789 202.461 126.858 202.838 126.097C203.214 125.336 204.145 125.022 204.906 125.399L224.829 135.266C225.59 135.643 225.904 136.574 225.528 137.335C225.151 138.096 224.22 138.41 223.459 138.033Z" stroke="#E7E7E7" stroke-miterlimit="10"/>
<path d="M217.021 132.479L211.902 129.943L211.423 130.912L216.542 133.447L217.021 132.479Z" fill="#E7E7E7"/>
<path d="M230.174 124.475L210.251 114.607C209.49 114.23 209.176 113.299 209.552 112.538C209.929 111.777 210.86 111.463 211.621 111.84L231.544 121.708C232.305 122.085 232.619 123.016 232.242 123.776C231.865 124.537 230.935 124.852 230.174 124.475Z" stroke="#E7E7E7" stroke-miterlimit="10"/>
<path d="M223.74 118.938L218.621 116.402L218.141 117.371L223.26 119.906L223.74 118.938Z" fill="#E7E7E7"/>
<path d="M232.572 119.633L212.649 109.765C211.888 109.388 211.574 108.457 211.951 107.697C212.328 106.936 213.259 106.621 214.02 106.998L233.943 116.866C234.703 117.243 235.018 118.174 234.641 118.935C234.264 119.696 233.333 120.01 232.572 119.633Z" stroke="#E7E7E7" stroke-miterlimit="10"/>
<path d="M226.131 114.075L221.012 111.539L220.532 112.508L225.651 115.043L226.131 114.075Z" fill="#E7E7E7"/>
<path d="M234.97 114.789L215.048 104.922C214.287 104.545 213.972 103.614 214.349 102.853C214.726 102.092 215.657 101.778 216.418 102.155L236.341 112.022C237.102 112.399 237.416 113.33 237.039 114.091C236.662 114.852 235.731 115.166 234.97 114.789Z" stroke="#E7E7E7" stroke-miterlimit="10"/>
<path d="M228.529 109.231L223.41 106.695L222.93 107.664L228.05 110.199L228.529 109.231Z" fill="#E7E7E7"/>
<path d="M240.455 103.723L220.532 93.8552C219.771 93.4783 219.457 92.5473 219.834 91.7864C220.211 91.0254 221.142 90.7112 221.902 91.0881L241.825 100.956C242.586 101.333 242.901 102.264 242.524 103.024C242.147 103.785 241.216 104.1 240.455 103.723Z" stroke="#E7E7E7" stroke-miterlimit="10"/>
<path d="M234.014 98.1643L228.895 95.6289L228.415 96.5973L233.534 99.1328L234.014 98.1643Z" fill="#E7E7E7"/>
<path d="M249.431 85.5978L229.509 75.7302C228.748 75.3533 228.433 74.4223 228.81 73.6614C229.187 72.9005 230.118 72.5863 230.879 72.9631L250.802 82.8308C251.563 83.2077 251.877 84.1386 251.5 84.8995C251.089 85.7296 250.192 85.9747 249.431 85.5978Z" stroke="#E7E7E7" stroke-miterlimit="10"/>
<path d="M243.002 80.0745L237.883 77.5391L237.403 78.5075L242.522 81.0429L243.002 80.0745Z" fill="#E7E7E7"/>
<path d="M259.162 65.9513L239.239 56.0837C238.478 55.7068 238.164 54.7758 238.541 54.0149C238.918 53.254 239.849 52.9397 240.61 53.3166L260.532 63.1843C261.293 63.5611 261.608 64.4921 261.231 65.253C260.854 66.014 259.923 66.3282 259.162 65.9513Z" stroke="#E7E7E7" stroke-miterlimit="10"/>
<path d="M252.721 60.3889L247.602 57.8535L247.122 58.822L252.241 61.3574L252.721 60.3889Z" fill="#E7E7E7"/>
<path d="M268.24 47.6193L248.317 37.7517C247.556 37.3748 247.242 36.4438 247.619 35.6829C247.996 34.9219 248.927 34.6077 249.688 34.9846L269.61 44.8522C270.371 45.2291 270.686 46.16 270.309 46.921C269.932 47.6819 269.001 47.9962 268.24 47.6193Z" stroke="#E7E7E7" stroke-miterlimit="10"/>
<path d="M261.799 42.0569L256.68 39.5215L256.2 40.49L261.319 43.0254L261.799 42.0569Z" fill="#E7E7E7"/>
<path d="M483.888 352.997L470.387 370.689C469.871 371.382 468.94 371.523 468.282 370.939C467.589 370.424 467.448 369.492 468.032 368.834L481.533 351.141C482.048 350.449 482.98 350.307 483.638 350.892C484.261 351.373 484.403 352.304 483.888 352.997Z" stroke="#E7E7E7" stroke-miterlimit="10"/>
<path d="M477.221 358.257L473.754 362.797L474.613 363.453L478.08 358.913L477.221 358.257Z" fill="#E7E7E7"/>
<path d="M469.983 345.418L464.022 366.845C463.784 367.675 462.957 368.127 462.127 367.888C461.298 367.65 460.846 366.823 461.085 365.993L467.045 344.566C467.284 343.737 468.111 343.285 468.94 343.523C469.735 343.831 470.187 344.658 469.983 345.418Z" stroke="#E7E7E7" stroke-miterlimit="10"/>
<path d="M465.768 352.804L464.234 358.307L465.276 358.597L466.809 353.094L465.768 352.804Z" fill="#E7E7E7"/>
<path d="M518.405 369.402L512.444 390.83C512.206 391.659 511.379 392.111 510.549 391.872C509.72 391.634 509.268 390.807 509.506 389.978L515.467 368.55C515.706 367.721 516.533 367.269 517.362 367.508C518.157 367.815 518.609 368.642 518.405 369.402Z" stroke="#E7E7E7" stroke-miterlimit="10"/>
<path d="M514.194 376.786L512.66 382.289L513.701 382.579L515.235 377.076L514.194 376.786Z" fill="#E7E7E7"/>
<path d="M346.712 431.849L324.887 475.914L335.609 481.225L357.434 437.159L346.712 431.849Z" stroke="#E7E7E7" stroke-miterlimit="10"/>
<path d="M353.978 435.446L332.152 479.512L335.611 481.225L357.436 437.159L353.978 435.446Z" stroke="#E7E7E7" stroke-miterlimit="10"/>
<path d="M346.712 431.849L324.887 475.914L328.346 477.627L350.171 433.562L346.712 431.849Z" stroke="#E7E7E7" stroke-miterlimit="10"/>
<path d="M334.816 453.436L346.507 459.226" stroke="#E7E7E7" stroke-miterlimit="10"/>
<path d="M123.081 352.355L103.988 342.898" stroke="#E7E7E7" stroke-miterlimit="10"/>
<path d="M124.449 303.671L123.696 351.11" stroke="#E7E7E7" stroke-miterlimit="10" stroke-dasharray="3 3"/>
<path d="M105.5 341.236C105.81 341.132 143.158 311.818 143.158 311.818" stroke="#E7E7E7" stroke-miterlimit="10" stroke-dasharray="3 3"/>
<path d="M181.369 246.321L163.301 233.926C163.301 233.926 160.736 231.105 164.348 227.811C167.961 224.518 192.176 210.065 208.831 214.007C208.831 214.007 213.358 215.129 211.923 219.07C210.488 223.011 205.196 238.567 205.196 238.567C205.196 238.567 204.304 240.193 203.028 240.508C201.752 240.824 183.789 247.175 183.789 247.175C183.789 247.175 183.031 247.488 181.369 246.321Z" stroke="#E7E7E7" stroke-miterlimit="10"/>
<path d="M183.151 242.032L177.495 225.275C177.041 223.93 177.795 222.408 179.139 221.954L189.896 218.151C191.275 217.628 192.866 218.416 193.286 219.83L199.082 237.173C199.571 238.621 198.748 240.109 197.3 240.598L186.437 243.746C185.023 244.165 183.605 243.377 183.151 242.032Z" stroke="#E7E7E7" stroke-miterlimit="10"/>
<path d="M180.591 240.938L175.594 224.938C175.419 224.248 174.623 223.94 174.038 224.253C171.281 225.645 164.7 229.191 165.156 231.054C165.647 233.02 175.893 240.162 179.662 241.77C180.112 242.079 180.731 241.525 180.591 240.938Z" stroke="#E7E7E7" stroke-miterlimit="10"/>
<path d="M195 217.58C195 217.58 205.211 215.574 210.602 216.865" stroke="#E7E7E7" stroke-miterlimit="10"/>
<path d="M209.819 219.319C209.819 219.319 199.422 217.874 196.32 219.439" stroke="#E7E7E7" stroke-miterlimit="10"/>
<path d="M196.812 222.096C196.812 222.096 205.645 220.612 208.927 221.118" stroke="#E7E7E7" stroke-miterlimit="10"/>
<path d="M197.27 224.303L208.245 223.364" stroke="#E7E7E7" stroke-miterlimit="10"/>
<path d="M198.105 226.096C198.347 225.957 207.459 225.474 207.459 225.474" stroke="#E7E7E7" stroke-miterlimit="10"/>
<path d="M199.047 228.197L206.64 227.651" stroke="#E7E7E7" stroke-miterlimit="10"/>
<path d="M199.711 230.336L206.129 229.552" stroke="#E7E7E7" stroke-miterlimit="10"/>
<path d="M200.547 232.473L205.516 231.832" stroke="#E7E7E7" stroke-miterlimit="10"/>
<path d="M201.109 234.646L204.733 234.288" stroke="#E7E7E7" stroke-miterlimit="10"/>
<path d="M186.407 227.623C187.032 226.362 186.516 224.834 185.255 224.21C183.994 223.585 182.466 224.101 181.842 225.362C181.217 226.622 181.733 228.151 182.994 228.775C184.255 229.4 185.783 228.884 186.407 227.623Z" stroke="#E7E7E7" stroke-miterlimit="10"/>
<path d="M224.702 219.712L210.586 248.213L240.401 262.98L254.517 234.479L224.702 219.712Z" stroke="#E7E7E7" stroke-miterlimit="10"/>
<path d="M250.082 267.775L263.993 239.69" stroke="#E7E7E7" stroke-miterlimit="10"/>
<path d="M238.154 253.08C238.892 251.59 238.282 249.784 236.792 249.046C235.302 248.308 233.496 248.918 232.758 250.408C232.02 251.898 232.63 253.704 234.12 254.442C235.61 255.18 237.416 254.57 238.154 253.08Z" stroke="#E7E7E7" stroke-miterlimit="10"/>
<path d="M244.935 239.383C245.673 237.893 245.063 236.087 243.573 235.349C242.083 234.611 240.277 235.22 239.539 236.71C238.801 238.2 239.411 240.006 240.901 240.744C242.391 241.482 244.197 240.873 244.935 239.383Z" stroke="#E7E7E7" stroke-miterlimit="10"/>
<path d="M224.111 246.125C224.849 244.635 224.239 242.829 222.749 242.091C221.259 241.353 219.453 241.963 218.715 243.453C217.977 244.943 218.587 246.749 220.077 247.487C221.567 248.225 223.373 247.615 224.111 246.125Z" stroke="#E7E7E7" stroke-miterlimit="10"/>
<path d="M230.892 232.428C231.63 230.938 231.021 229.132 229.531 228.394C228.041 227.656 226.234 228.265 225.496 229.755C224.758 231.245 225.368 233.051 226.858 233.789C228.348 234.527 230.154 233.918 230.892 232.428Z" stroke="#E7E7E7" stroke-miterlimit="10"/>
<path d="M268.207 257.799L276.647 261.979" stroke="#E7E7E7" stroke-miterlimit="10"/>
<path d="M274.515 255.669L270.301 264.178" stroke="#E7E7E7" stroke-miterlimit="10"/>
<path d="M270.922 255.443L273.96 264.442" stroke="#E7E7E7" stroke-miterlimit="10"/>
<path d="M276.941 258.423L267.941 261.461" stroke="#E7E7E7" stroke-miterlimit="10"/>
<path d="M160.009 294.491C158.639 297.258 158.72 300.4 159.938 302.984C162.199 298.419 164.46 293.853 166.722 289.287C163.928 289.885 161.38 291.724 160.009 294.491Z" stroke="#E7E7E7" stroke-miterlimit="10" stroke-dasharray="3 3"/>
<path d="M159.866 302.95C160.805 304.88 162.296 306.566 164.371 307.593C169.214 309.992 175.11 308.002 177.508 303.159C179.906 298.317 177.985 292.455 173.143 290.057C171.068 289.029 168.857 288.796 166.719 289.287C164.388 293.818 162.127 298.384 159.866 302.95Z" stroke="#E7E7E7" stroke-miterlimit="10"/>
<path d="M168.621 308.58L176.467 292.739" stroke="#E7E7E7" stroke-miterlimit="10"/>
<path d="M173.716 266.821C172.346 269.589 172.427 272.73 173.645 275.315C175.906 270.749 178.167 266.183 180.429 261.618C177.635 262.215 175.087 264.054 173.716 266.821Z" stroke="#E7E7E7" stroke-miterlimit="10" stroke-dasharray="3 3"/>
<path d="M173.573 275.28C174.512 277.21 176.003 278.896 178.078 279.924C182.921 282.322 188.817 280.332 191.215 275.489C193.613 270.647 191.692 264.785 186.85 262.387C184.775 261.359 182.564 261.126 180.426 261.617C178.095 266.149 175.834 270.714 173.573 275.28Z" stroke="#E7E7E7" stroke-miterlimit="10"/>
<path d="M182.328 280.91L190.174 265.069" stroke="#E7E7E7" stroke-miterlimit="10"/>
<path d="M210.102 358.759C212.869 360.13 216.011 360.049 218.595 358.831C214.03 356.569 209.464 354.308 204.899 352.047C205.565 354.875 207.335 357.389 210.102 358.759Z" stroke="#E7E7E7" stroke-miterlimit="10" stroke-dasharray="3 3"/>
<path d="M218.56 358.9C220.489 357.96 222.175 356.469 223.203 354.394C225.602 349.552 223.612 343.656 218.769 341.257C213.927 338.859 208.031 340.849 205.633 345.691C204.605 347.767 204.371 349.977 204.863 352.116C209.498 354.411 213.994 356.638 218.56 358.9Z" stroke="#E7E7E7" stroke-miterlimit="10"/>
<path d="M224.259 350.178L208.418 342.332" stroke="#E7E7E7" stroke-miterlimit="10"/>
<path d="M184.372 346.013C187.139 347.384 190.28 347.303 192.865 346.085C188.299 343.823 183.734 341.562 179.168 339.301C179.835 342.129 181.605 344.643 184.372 346.013Z" stroke="#E7E7E7" stroke-miterlimit="10" stroke-dasharray="3 3"/>
<path d="M192.829 346.154C194.759 345.214 196.445 343.723 197.473 341.648C199.871 336.806 197.881 330.91 193.039 328.511C188.196 326.113 182.3 328.103 179.902 332.945C178.874 335.021 178.641 337.231 179.132 339.37C183.698 341.631 188.264 343.892 192.829 346.154Z" stroke="#E7E7E7" stroke-miterlimit="10"/>
<path d="M198.529 337.432L182.688 329.586" stroke="#E7E7E7" stroke-miterlimit="10"/>
<path d="M186.254 360.816C187.048 359.212 186.392 357.267 184.787 356.472C183.183 355.677 181.238 356.334 180.443 357.938C179.648 359.543 180.305 361.488 181.909 362.283C183.514 363.078 185.459 362.421 186.254 360.816Z" stroke="#E7E7E7" stroke-miterlimit="10" stroke-dasharray="3 3"/>
<path d="M174.358 354.924C174.812 354.007 174.437 352.895 173.52 352.441C172.603 351.987 171.491 352.362 171.037 353.279C170.583 354.196 170.958 355.308 171.875 355.762C172.792 356.216 173.903 355.841 174.358 354.924Z" stroke="#E7E7E7" stroke-miterlimit="10"/>
<path d="M194.972 365.135C195.767 363.53 195.111 361.585 193.506 360.79C191.902 359.996 189.956 360.652 189.162 362.257C188.367 363.861 189.023 365.806 190.628 366.601C192.233 367.396 194.178 366.739 194.972 365.135Z" stroke="#E7E7E7" stroke-miterlimit="10" stroke-dasharray="3 3"/>
<path d="M203.551 369.383C204.345 367.778 203.689 365.833 202.084 365.038C200.48 364.244 198.535 364.9 197.74 366.505C196.945 368.109 197.602 370.054 199.206 370.849C200.811 371.644 202.756 370.987 203.551 369.383Z" stroke="#E7E7E7" stroke-miterlimit="10" stroke-dasharray="3 3"/>
<path d="M70.1656 473.802C68.5204 476.95 68.1203 480.715 69.3423 484.335C70.5992 488.059 73.3372 490.879 76.657 492.351C74.0806 486.596 73.7481 480.831 70.1656 473.802Z" stroke="#E7E7E7" stroke-miterlimit="10" stroke-dasharray="3 3"/>
<path d="M77.8732 467.11C74.3563 468.297 71.6727 470.758 70.1651 473.802C74.0347 483.73 74.0801 486.595 76.6565 492.351C79.6997 493.686 83.1533 494.018 86.5668 492.866C93.7041 490.457 97.5072 482.778 95.0982 475.641C92.6548 468.573 84.9762 464.77 77.8732 467.11Z" stroke="#E7E7E7" stroke-miterlimit="10"/>
<path d="M88.8695 462.648C93.1222 464.324 96.7938 467.521 98.8815 471.828C99.2293 472.518 99.5429 473.276 99.7873 474C100.032 474.724 100.242 475.517 100.383 476.276C101.333 480.968 100.349 485.736 97.982 489.646C97.8107 489.992 97.5353 490.2 97.225 490.305C96.8112 490.444 96.2242 490.412 95.8777 490.068C95.2544 489.587 95.0786 488.725 95.4904 488.067C97.4117 484.884 98.2947 481.014 97.5899 477.219C97.4489 476.46 97.2388 475.667 96.9944 474.943C96.75 474.219 96.4364 473.46 96.0886 472.771C94.2802 469.291 91.336 466.713 87.8442 465.414C87.3949 465.278 87.0826 464.865 87.0121 464.485C86.9074 464.175 86.8718 463.899 87.0089 463.622C87.144 462.827 88.0743 462.341 88.8695 462.648Z" stroke="#E7E7E7" stroke-miterlimit="10"/>
<path d="M94.2975 473.436L96.056 472.842C96.4038 473.531 96.7174 474.29 96.9618 475.014C97.2062 475.738 97.4163 476.531 97.5573 477.29L95.7988 477.883L94.2975 473.436Z" stroke="#E7E7E7" stroke-miterlimit="10"/>
<path d="M98.8835 471.83L100.435 471.306L101.936 475.754L100.385 476.278C100.244 475.519 100.034 474.726 99.7893 474.002C99.5449 473.278 99.197 472.588 98.8835 471.83Z" stroke="#E7E7E7" stroke-miterlimit="10"/>
<path d="M103.568 469.154L128.706 543.63L202.698 518.252" stroke="#E7E7E7" stroke-miterlimit="10" stroke-dasharray="3 3"/>
<path d="M163.651 473.069L128.703 543.629" stroke="#E7E7E7" stroke-miterlimit="10"/>
<path d="M246.14 329.486L251.588 327.704L285.692 344.596L287.611 350.112" stroke="#E7E7E7" stroke-miterlimit="10"/>
<path d="M256.222 330L254.406 333.666L278.618 345.658L280.434 341.992" stroke="#E7E7E7" stroke-miterlimit="10"/>
<path d="M253.928 334.634L241.594 359.537L265.806 371.529L278.346 346.21" stroke="#E7E7E7" stroke-miterlimit="10" stroke-dasharray="3 3"/>
<path d="M322.522 360.855L322.899 360.094C323.652 358.572 323.024 356.71 321.502 355.956L301.994 346.294C300.472 345.54 298.611 346.169 297.857 347.691L297.48 348.452C296.726 349.974 297.355 351.835 298.876 352.589L318.384 362.251C319.906 363.005 321.768 362.377 322.522 360.855Z" stroke="#E7E7E7" stroke-miterlimit="10"/>
<path d="M336.842 331.939L337.219 331.178C337.973 329.656 337.344 327.794 335.822 327.04L316.315 317.378C314.793 316.624 312.931 317.253 312.177 318.775L311.8 319.536C311.046 321.058 311.675 322.919 313.197 323.673L332.705 333.335C334.226 334.089 336.088 333.461 336.842 331.939Z" stroke="#E7E7E7" stroke-miterlimit="10"/>
<path d="M325.604 354.628L334.135 337.403C334.889 335.881 334.261 334.019 332.739 333.266L313.231 323.604C311.709 322.85 309.847 323.478 309.093 325L300.562 342.225C299.808 343.747 300.437 345.609 301.958 346.363L321.466 356.025C322.988 356.779 324.85 356.15 325.604 354.628Z" stroke="#E7E7E7" stroke-miterlimit="10"/>
<path d="M325.604 354.63L334.136 337.405C334.89 335.883 334.261 334.021 332.739 333.267L330.871 332.342C329.35 331.588 327.488 332.217 326.734 333.738L318.203 350.963C317.449 352.485 318.077 354.347 319.599 355.101L321.467 356.026C322.989 356.78 324.851 356.151 325.604 354.63Z" stroke="#E7E7E7" stroke-miterlimit="10"/>
<path d="M247.877 533.997L240.645 575.384" stroke="#E7E7E7" stroke-width="3" stroke-miterlimit="10"/>
<path d="M422.685 391.513L392.706 360.728" stroke="#E7E7E7" stroke-width="3" stroke-miterlimit="10"/>
<path d="M369.473 150.566L363.072 192.536" stroke="#E7E7E7" stroke-width="3" stroke-miterlimit="10"/>
<path d="M418.098 99.3574L465.972 105.84" stroke="#E7E7E7" stroke-width="3" stroke-miterlimit="10"/>
<path d="M469.08 215.924L445.93 192.397" stroke="#E7E7E7" stroke-width="3" stroke-miterlimit="10"/>
<path d="M276.511 280.865L247.902 274.793" stroke="#E7E7E7" stroke-miterlimit="10"/>
<path d="M277.995 189.681L263.879 218.182L315.831 243.913L329.947 215.412L277.995 189.681Z" stroke="#E7E7E7" stroke-miterlimit="10"/>
<path d="M315.9 243.947L277.961 189.75L263.879 218.182L329.982 215.515" stroke="#E7E7E7" stroke-miterlimit="10" stroke-dasharray="3 3"/>
<path d="M338.296 67.9308L324.18 96.4316L376.131 122.163L390.247 93.662L338.296 67.9308Z" stroke="#E7E7E7" stroke-miterlimit="10"/>
<path d="M376.2 122.197L338.296 67.9308L324.18 96.4316L390.317 93.6963" stroke="#E7E7E7" stroke-miterlimit="10" stroke-dasharray="3 3"/>
<path d="M215.614 190.746L209.734 187.834" stroke="#E7E7E7" stroke-miterlimit="10"/>
<path d="M253.038 209.282L236.297 200.99" stroke="#E7E7E7" stroke-miterlimit="10"/>
<path d="M260.096 212.778L254.977 210.242" stroke="#E7E7E7" stroke-miterlimit="10"/>
<path d="M234.361 200.031L217.551 191.705" stroke="#E7E7E7" stroke-miterlimit="10"/>
<path d="M217.237 189.911C217.514 190.048 217.722 190.324 217.792 190.531C217.897 190.841 217.863 191.083 217.726 191.359C217.657 191.498 217.623 191.567 217.485 191.671C217.142 192.018 216.659 192.123 216.174 191.883C215.759 191.678 215.481 191.195 215.549 190.712C215.548 190.539 215.582 190.47 215.651 190.332C215.788 190.055 216.063 189.847 216.27 189.777C216.649 189.706 216.96 189.774 217.237 189.911Z" stroke="#E7E7E7" stroke-miterlimit="10"/>
<path d="M223.789 188.504L217.789 190.529" stroke="#E7E7E7" stroke-miterlimit="10"/>
<path d="M216.336 189.811C215.673 187.846 214.346 183.743 214.38 183.674" stroke="#E7E7E7" stroke-miterlimit="10"/>
<path d="M219.907 184.514L217.234 189.91" stroke="#E7E7E7" stroke-miterlimit="10"/>
<path d="M235.983 199.196C236.26 199.333 236.468 199.609 236.538 199.816C236.643 200.126 236.609 200.368 236.472 200.645C236.404 200.783 236.369 200.852 236.232 200.956C235.888 201.303 235.405 201.408 234.92 201.168C234.436 200.928 234.227 200.48 234.295 199.997C234.294 199.824 234.328 199.755 234.397 199.617C234.534 199.34 234.809 199.132 235.016 199.062C235.465 199.026 235.707 199.059 235.983 199.196Z" stroke="#E7E7E7" stroke-miterlimit="10"/>
<path d="M242.605 197.825L236.605 199.85" stroke="#E7E7E7" stroke-miterlimit="10"/>
<path d="M235.153 199.132C234.489 197.166 233.162 193.063 233.196 192.994" stroke="#E7E7E7" stroke-miterlimit="10"/>
<path d="M238.657 193.801L235.984 199.197" stroke="#E7E7E7" stroke-miterlimit="10"/>
<path d="M254.659 208.446C254.936 208.583 255.144 208.859 255.214 209.066C255.318 209.376 255.285 209.618 255.148 209.895C255.079 210.033 255.045 210.102 254.907 210.206C254.563 210.553 254.011 210.624 253.596 210.418C253.181 210.213 252.903 209.73 252.97 209.247C252.97 209.074 253.004 209.005 253.073 208.867C253.21 208.59 253.485 208.382 253.761 208.346C254.141 208.276 254.382 208.309 254.659 208.446Z" stroke="#E7E7E7" stroke-miterlimit="10"/>
<path d="M261.281 207.075L255.281 209.1" stroke="#E7E7E7" stroke-miterlimit="10"/>
<path d="M253.829 208.382C253.165 206.416 251.838 202.313 251.872 202.244" stroke="#E7E7E7" stroke-miterlimit="10"/>
<path d="M257.333 203.051L254.66 208.447" stroke="#E7E7E7" stroke-miterlimit="10"/>
<path d="M325.688 65.5625L331.568 68.4748" stroke="#E7E7E7" stroke-miterlimit="10"/>
<path d="M288.262 47.0254L305.002 55.3169" stroke="#E7E7E7" stroke-miterlimit="10"/>
<path d="M281.207 43.5312L286.326 46.0667" stroke="#E7E7E7" stroke-miterlimit="10"/>
<path d="M306.941 56.2773L323.82 64.6374" stroke="#E7E7E7" stroke-miterlimit="10"/>
<path d="M324.136 66.4308C323.86 66.2938 323.652 66.0184 323.582 65.8115C323.477 65.5012 323.511 65.2594 323.648 64.9827C323.716 64.8444 323.75 64.7752 323.888 64.6711C324.232 64.3246 324.715 64.2192 325.199 64.459C325.614 64.6646 325.892 65.1469 325.825 65.6305C325.826 65.8031 325.791 65.8723 325.723 66.0106C325.586 66.2873 325.31 66.4955 325.104 66.5653C324.655 66.6015 324.413 66.5679 324.136 66.4308Z" stroke="#E7E7E7" stroke-miterlimit="10"/>
<path d="M317.516 67.8027L323.515 65.7778" stroke="#E7E7E7" stroke-miterlimit="10"/>
<path d="M324.966 66.4979C325.629 68.4632 326.957 72.5665 326.922 72.6357" stroke="#E7E7E7" stroke-miterlimit="10"/>
<path d="M321.465 71.8262L324.137 66.4303" stroke="#E7E7E7" stroke-miterlimit="10"/>
<path d="M305.32 57.1125C305.043 56.9754 304.835 56.7001 304.765 56.4932C304.661 56.1829 304.694 55.9411 304.831 55.6644C304.9 55.526 304.934 55.4568 305.072 55.3528C305.416 55.0062 305.899 54.9008 306.383 55.1407C306.867 55.3805 307.076 55.8285 307.009 56.3121C307.009 56.4847 306.975 56.5539 306.907 56.6923C306.769 56.969 306.494 57.1771 306.287 57.247C305.908 57.3174 305.597 57.2495 305.32 57.1125Z" stroke="#E7E7E7" stroke-miterlimit="10"/>
<path d="M298.766 58.5176L304.765 56.4926" stroke="#E7E7E7" stroke-miterlimit="10"/>
<path d="M306.22 57.2127C306.883 59.178 308.211 63.2813 308.176 63.3505" stroke="#E7E7E7" stroke-miterlimit="10"/>
<path d="M302.648 62.5078L305.321 57.112" stroke="#E7E7E7" stroke-miterlimit="10"/>
<path d="M286.644 47.8605C286.368 47.7235 286.159 47.4481 286.09 47.2412C285.985 46.9309 286.018 46.6891 286.155 46.4124C286.224 46.2741 286.258 46.2049 286.396 46.1008C286.74 45.7543 287.292 45.6832 287.707 45.8887C288.122 46.0943 288.4 46.5766 288.333 47.0602C288.334 47.2328 288.299 47.302 288.231 47.4403C288.094 47.717 287.818 47.9252 287.542 47.9607C287.232 48.0655 286.921 47.9976 286.644 47.8605Z" stroke="#E7E7E7" stroke-miterlimit="10"/>
<path d="M280.09 49.2656L286.089 47.2407" stroke="#E7E7E7" stroke-miterlimit="10"/>
<path d="M287.47 47.9256C288.133 49.8909 289.461 53.9942 289.426 54.0634" stroke="#E7E7E7" stroke-miterlimit="10"/>
<path d="M283.969 53.2559L286.641 47.8601" stroke="#E7E7E7" stroke-miterlimit="10"/>
<path d="M203.871 189.41L279.18 37.3601" stroke="#E7E7E7" stroke-miterlimit="10"/>
<path d="M192.262 177.543L262.397 35.9385" stroke="#E7E7E7" stroke-miterlimit="10"/>
<path d="M396.716 96.6074L372.801 144.893L391.063 153.938L414.979 105.653L396.716 96.6074Z" stroke="#E7E7E7" stroke-miterlimit="10"/>
<path d="M377.02 146.982L400.935 98.6972" stroke="#E7E7E7" stroke-miterlimit="10"/>
<path d="M394.866 118.951L391.684 117.375" stroke="#E7E7E7" stroke-miterlimit="10"/>
<path d="M397.952 112.725L394.77 111.148" stroke="#E7E7E7" stroke-miterlimit="10"/>
<path d="M401.034 106.5L397.852 104.924" stroke="#E7E7E7" stroke-miterlimit="10"/>
<path d="M340.468 256.024L364.383 207.738L346.12 198.693L322.205 246.978L340.468 256.024Z" stroke="#E7E7E7" stroke-miterlimit="10"/>
<path d="M350.365 200.803L326.449 249.088" stroke="#E7E7E7" stroke-miterlimit="10"/>
<path d="M338.85 232.055L335.668 230.479" stroke="#E7E7E7" stroke-miterlimit="10"/>
<path d="M335.764 238.281L332.582 236.705" stroke="#E7E7E7" stroke-miterlimit="10"/>
<path d="M332.682 244.508L329.5 242.932" stroke="#E7E7E7" stroke-miterlimit="10"/>
<path d="M398.674 249.366L384.387 278.213L432.326 301.957L446.614 273.11L398.674 249.366Z" stroke="#E7E7E7" stroke-miterlimit="10"/>
<path d="M395.559 265.742L436.58 286.06" stroke="#E7E7E7" stroke-miterlimit="10"/>
<path d="M400.352 245.977L421.865 256.632" stroke="#E7E7E7" stroke-miterlimit="10"/>
<path d="M417.34 256.201L438.854 266.857" stroke="#E7E7E7" stroke-miterlimit="10"/>
<path d="M492.445 196.398L608.731 253.994" stroke="#E7E7E7" stroke-miterlimit="10"/>
<path d="M486.633 292.845L471.797 322.799L554.394 363.708L569.229 333.755L486.633 292.845Z" stroke="#E7E7E7" stroke-miterlimit="10"/>
<path d="M501.675 336.911L516.271 307.441L505.839 296.675" stroke="#E7E7E7" stroke-miterlimit="10"/>
<path d="M501.274 294.412L486.664 292.775" stroke="#E7E7E7" stroke-miterlimit="10"/>
<path d="M540.233 344.636L550.306 324.299L521.875 310.217L511.801 330.555C511.048 332.076 511.676 333.938 513.198 334.692L536.026 345.999C537.583 346.856 539.479 346.158 540.233 344.636Z" stroke="#E7E7E7" stroke-miterlimit="10"/>
<path d="M507.994 336.679L507 338.686L536.953 353.521L537.947 351.515L507.994 336.679Z" stroke="#E7E7E7" stroke-miterlimit="10"/>
<path d="M546.495 347.65L544.199 352.285L552.639 356.465L554.934 351.83L546.495 347.65Z" stroke="#E7E7E7" stroke-miterlimit="10"/>
<path d="M552.167 350.459L549.871 355.094L552.638 356.464L554.934 351.829L552.167 350.459Z" stroke="#E7E7E7" stroke-miterlimit="10"/>
<path d="M534.972 322.733C535.35 321.969 535.038 321.043 534.274 320.664C533.509 320.286 532.583 320.598 532.205 321.363C531.826 322.127 532.139 323.053 532.903 323.431C533.667 323.81 534.593 323.497 534.972 322.733Z" stroke="#E7E7E7" stroke-miterlimit="10"/>
<path d="M529.425 188.18C529.803 187.416 529.491 186.49 528.727 186.112C527.963 185.733 527.036 186.046 526.658 186.81C526.279 187.574 526.592 188.5 527.356 188.879C528.12 189.257 529.047 188.944 529.425 188.18Z" stroke="#E7E7E7" stroke-miterlimit="10"/>
<path d="M520.69 178.339L515.653 188.508C512.364 195.149 515.087 203.217 521.728 206.507L589.867 240.255C596.508 243.544 604.576 240.821 607.865 234.18L612.902 224.011C616.191 217.37 613.468 209.302 606.827 206.013L538.688 172.264C532.047 168.975 523.979 171.698 520.69 178.339Z" stroke="#E7E7E7" stroke-miterlimit="10"/>
<path d="M448.933 284.771L438.586 305.662L467.571 320.018L477.918 299.127L448.933 284.771Z" stroke="#E7E7E7" stroke-miterlimit="10"/>
<path d="M456.194 286.815L455.543 288.129L470.416 295.495L471.067 294.181L456.194 286.815Z" stroke="#E7E7E7" stroke-miterlimit="10"/>
<path d="M452.985 306.506L459.098 307.036L462.764 299.634L458.258 294.817C458.258 294.817 459.409 297.886 456.039 301.558C452.67 305.23 452.985 306.506 452.985 306.506Z" stroke="#E7E7E7" stroke-miterlimit="10" stroke-linecap="round" stroke-linejoin="round"/>
<path d="M485.727 171.878L498.13 146.836L478.346 137.037L465.943 162.078C463.236 167.543 465.47 174.164 470.935 176.87C476.4 179.577 483.02 177.342 485.727 171.878Z" stroke="#E7E7E7" stroke-miterlimit="10" stroke-linecap="round" stroke-linejoin="round"/>
<path d="M483.685 170.78L491.463 155.077L475.829 147.333L468.051 163.037C465.927 167.326 467.708 172.601 471.997 174.725C476.355 176.884 481.561 175.069 483.685 170.78Z" stroke="#E7E7E7" stroke-miterlimit="10" stroke-linecap="round" stroke-linejoin="round"/>
<path d="M473.754 146.307L493.538 156.106" stroke="#E7E7E7" stroke-miterlimit="10" stroke-linecap="round" stroke-linejoin="round"/>
<path d="M477.356 167.732C477.772 166.891 477.429 165.872 476.588 165.456C475.748 165.04 474.729 165.384 474.312 166.224C473.896 167.065 474.24 168.084 475.08 168.5C475.921 168.916 476.94 168.572 477.356 167.732Z" stroke="#E7E7E7" stroke-miterlimit="10" stroke-linecap="round" stroke-linejoin="round"/>
</svg>
