<svg width="610" height="698" viewBox="0 0 610 698" fill="none" xmlns="http://www.w3.org/2000/svg">
<g clip-path="url(#clip0_2138_5336)">
<path d="M421.331 29.4563L452.514 1.70703L522.57 46.2481V56.494L513.315 62.8977L523.282 67.8783V125.796L570.841 152.834L570.698 575.049L574.401 580.883L574.685 633.963H608.574V694.015L390.717 693.161L362.239 685.904L148.511 682.346L4.697 674.377V376.251L148.938 225.124L319.38 282.472" stroke="#CCCCCC" stroke-width="2" stroke-miterlimit="10"/>
<path d="M319.383 623.717V75.4204L386.022 8.82227L444.117 42.6906V687.611" stroke="#CCCCCC" stroke-width="2" stroke-miterlimit="10"/>
<path d="M148.512 682.347V225.125" stroke="#CCCCCC" stroke-width="2" stroke-miterlimit="10"/>
<path d="M265.984 264.543V678.932" stroke="#CCCCCC" stroke-width="2" stroke-miterlimit="10"/>
<path d="M319.383 94.6328L205.898 201.93V212.745L196.642 220.429V228.968L208.746 232.241L197.782 241.633" stroke="#CCCCCC" stroke-width="2" stroke-miterlimit="10"/>
<path d="M523.285 125.797V687.612" stroke="#CCCCCC" stroke-width="2" stroke-miterlimit="10"/>
<path d="M452.945 687.611V1.70703" stroke="#CCCCCC" stroke-width="2" stroke-miterlimit="10"/>
<path d="M523.283 95.6289L552.473 113.701V142.874" stroke="#CCCCCC" stroke-width="2" stroke-miterlimit="10"/>
<path d="M523.285 67.8795L478.432 41.8379V690.031" stroke="#CCCCCC" stroke-miterlimit="10"/>
<path d="M486.973 690.031V46.3906" stroke="#CCCCCC" stroke-miterlimit="10"/>
<path d="M492.527 50.0918V688.324" stroke="#CCCCCC" stroke-miterlimit="10"/>
<path d="M498.367 689.035V53.791" stroke="#CCCCCC" stroke-miterlimit="10"/>
<path d="M504.348 56.9219V689.035" stroke="#CCCCCC" stroke-miterlimit="10"/>
<path d="M509.898 689.034V60.4785" stroke="#CCCCCC" stroke-miterlimit="10"/>
<path d="M515.309 63.8945V689.035" stroke="#CCCCCC" stroke-miterlimit="10"/>
<path d="M523.285 91.3588L478.432 65.8865L470.458 71.294L457.501 64.748" stroke="#CCCCCC" stroke-miterlimit="10"/>
<path d="M522.57 56.4952L457.498 16.5078V688.324" stroke="#CCCCCC" stroke-miterlimit="10"/>
<path d="M470.456 689.035V49.38L478.43 41.8379" stroke="#CCCCCC" stroke-miterlimit="10"/>
<path d="M457.5 41.8379L470.457 49.38" stroke="#CCCCCC" stroke-miterlimit="10"/>
<path d="M438.562 564.946V54.6449L420.764 44.6836V562.669L438.562 564.946Z" stroke="#CCCCCC" stroke-miterlimit="10"/>
<path d="M432.867 51.3711V564.092" stroke="#CCCCCC" stroke-miterlimit="10"/>
<path d="M427.172 563.522V48.3828" stroke="#CCCCCC" stroke-miterlimit="10"/>
<path d="M386.02 8.82227V688.323" stroke="#CCCCCC" stroke-miterlimit="10"/>
<path d="M358.968 645.49L379.188 644.209V31.3066L358.968 50.5177V645.49Z" stroke="#CCCCCC" stroke-miterlimit="10"/>
<path d="M345.44 645.489H353.129V56.3516L343.162 66.3128V645.489H345.44Z" stroke="#CCCCCC" stroke-miterlimit="10"/>
<path d="M334.762 645.49V74.1406L324.794 83.9596V645.49H334.762Z" stroke="#CCCCCC" stroke-miterlimit="10"/>
<path d="M208.745 232.24L313.402 137.466V128.074L300.587 123.805L205.898 212.745" stroke="#CCCCCC" stroke-miterlimit="10"/>
<path d="M196.64 228.967L301.012 132.627" stroke="#CCCCCC" stroke-miterlimit="10"/>
<path d="M313.402 137.466L300.302 132.628V123.805" stroke="#CCCCCC" stroke-miterlimit="10"/>
<path d="M549.77 576.188V157.531L535.531 151.127V574.481L549.77 576.188Z" stroke="#CCCCCC" stroke-miterlimit="10"/>
<path d="M540.942 153.547V575.051L545.926 575.762V155.539" stroke="#CCCCCC" stroke-miterlimit="10"/>
<path d="M265.985 278.203L282.645 282.757V531.219L265.985 529.654V278.203Z" stroke="#CCCCCC" stroke-miterlimit="10"/>
<path d="M273.531 280.623V530.366" stroke="#CCCCCC" stroke-miterlimit="10"/>
<path d="M282.645 505.32L266.127 503.186" stroke="#CCCCCC" stroke-miterlimit="10"/>
<path d="M282.504 477.286L265.987 474.867" stroke="#CCCCCC" stroke-miterlimit="10"/>
<path d="M282.645 449.679L265.985 447.545" stroke="#CCCCCC" stroke-miterlimit="10"/>
<path d="M282.645 422.215C282.217 422.215 265.7 419.084 265.7 419.084" stroke="#CCCCCC" stroke-miterlimit="10"/>
<path d="M282.645 395.178L265.985 392.189" stroke="#CCCCCC" stroke-miterlimit="10"/>
<path d="M282.645 366.717L265.273 363.586" stroke="#CCCCCC" stroke-miterlimit="10"/>
<path d="M282.645 339.963L265.985 335.979" stroke="#CCCCCC" stroke-miterlimit="10"/>
<path d="M282.645 313.068L265.415 308.799" stroke="#CCCCCC" stroke-miterlimit="10"/>
<path d="M319.383 535.061C319.383 535.203 294.037 532.215 294.037 532.215V286.172L319.383 293.429V535.061Z" stroke="#CCCCCC" stroke-miterlimit="10"/>
<path d="M319.383 550.716C317.674 550.716 265.987 546.02 265.987 546.02V589.564L319.383 592.98V550.716Z" stroke="#CCCCCC" stroke-miterlimit="10"/>
<path d="M311.406 550.715V619.874" stroke="#CCCCCC" stroke-miterlimit="10"/>
<path d="M302.578 619.875V549.15" stroke="#CCCCCC" stroke-miterlimit="10"/>
<path d="M293.184 548.439V620.445" stroke="#CCCCCC" stroke-miterlimit="10"/>
<path d="M283.215 590.561V547.443" stroke="#CCCCCC" stroke-miterlimit="10"/>
<path d="M273.961 546.588V589.848" stroke="#CCCCCC" stroke-miterlimit="10"/>
<path d="M287.915 590.846V620.445H319.383" stroke="#CCCCCC" stroke-miterlimit="10"/>
<path d="M318.668 571.065L266.268 567.223" stroke="#CCCCCC" stroke-miterlimit="10"/>
<path d="M438.562 644.635L394.991 643.782V569.072L438.562 572.203V644.635Z" stroke="#CCCCCC" stroke-miterlimit="10"/>
<path d="M423.043 571.92V644.21" stroke="#CCCCCC" stroke-miterlimit="10"/>
<path d="M408.66 570.068V644.066" stroke="#CCCCCC" stroke-miterlimit="10"/>
<path d="M400.117 569.357V643.782" stroke="#CCCCCC" stroke-miterlimit="10"/>
<path d="M415.781 570.496V644.067" stroke="#CCCCCC" stroke-miterlimit="10"/>
<path d="M430.305 571.92V644.353" stroke="#CCCCCC" stroke-miterlimit="10"/>
<path d="M438.562 595.684L394.991 592.838" stroke="#CCCCCC" stroke-miterlimit="10"/>
<path d="M394.991 615.748L438.562 617.598" stroke="#CCCCCC" stroke-miterlimit="10"/>
<path d="M374.629 644.209V36.1445" stroke="#CCCCCC" stroke-miterlimit="10"/>
<path d="M369.789 645.205V40.4141" stroke="#CCCCCC" stroke-miterlimit="10"/>
<path d="M364.66 645.205V45.3945" stroke="#CCCCCC" stroke-miterlimit="10"/>
<path d="M347.289 645.491V63.1836" stroke="#CCCCCC" stroke-miterlimit="10"/>
<path d="M329.777 645.489V79.832" stroke="#CCCCCC" stroke-miterlimit="10"/>
<path d="M335.613 640.367C332.054 640.652 328.351 640.936 324.792 641.221" stroke="#CCCCCC" stroke-miterlimit="10"/>
<path d="M353.555 638.943C349.995 639.228 346.293 639.513 342.733 639.797" stroke="#CCCCCC" stroke-miterlimit="10"/>
<path d="M379.188 636.809C372.353 637.378 365.376 637.947 358.541 638.516" stroke="#CCCCCC" stroke-miterlimit="10"/>
<path d="M333.621 626.422C330.631 626.706 327.783 626.991 324.793 627.133" stroke="#CCCCCC" stroke-miterlimit="10"/>
<path d="M352.844 624.713C349.569 624.997 346.294 625.282 343.019 625.567" stroke="#CCCCCC" stroke-miterlimit="10"/>
<path d="M379.188 622.438C372.353 623.007 365.518 623.576 358.683 624.288" stroke="#CCCCCC" stroke-miterlimit="10"/>
<path d="M358.399 601.803C365.376 601.091 372.21 600.38 379.188 599.811" stroke="#CCCCCC" stroke-miterlimit="10"/>
<path d="M342.589 603.367C345.864 603.083 349.139 602.656 352.414 602.371" stroke="#CCCCCC" stroke-miterlimit="10"/>
<path d="M324.792 605.076C327.924 604.792 331.199 604.507 334.332 604.08" stroke="#CCCCCC" stroke-miterlimit="10"/>
<path d="M334.762 597.391C331.487 597.675 328.212 598.102 324.794 598.387" stroke="#CCCCCC" stroke-miterlimit="10"/>
<path d="M352.844 595.541C349.569 595.826 346.294 596.253 343.019 596.537" stroke="#CCCCCC" stroke-miterlimit="10"/>
<path d="M379.188 592.838C372.353 593.549 365.518 594.261 358.683 594.972" stroke="#CCCCCC" stroke-miterlimit="10"/>
<path d="M343.305 569.073C355.266 567.223 367.227 565.373 379.188 563.523" stroke="#CCCCCC" stroke-miterlimit="10"/>
<path d="M324.792 571.919C328.067 571.35 331.342 570.923 334.617 570.354" stroke="#CCCCCC" stroke-miterlimit="10"/>
<path d="M358.681 542.746C365.373 541.466 372.065 540.185 378.758 538.904" stroke="#CCCCCC" stroke-miterlimit="10"/>
<path d="M343.304 545.592C346.436 545.023 349.711 544.454 352.844 543.742" stroke="#CCCCCC" stroke-miterlimit="10"/>
<path d="M324.792 549.151C328.067 548.581 331.342 547.87 334.617 547.301" stroke="#CCCCCC" stroke-miterlimit="10"/>
<path d="M334.762 524.105C331.487 524.959 328.212 525.671 324.937 526.525" stroke="#CCCCCC" stroke-miterlimit="10"/>
<path d="M353.27 519.551C350.137 520.405 346.862 521.116 343.729 521.97" stroke="#CCCCCC" stroke-miterlimit="10"/>
<path d="M379.188 513.146C372.495 514.854 365.803 516.419 359.11 518.127" stroke="#CCCCCC" stroke-miterlimit="10"/>
<path d="M359.253 493.369C365.945 491.519 372.495 489.669 379.188 487.961" stroke="#CCCCCC" stroke-miterlimit="10"/>
<path d="M343.02 497.778C346.437 496.782 349.997 495.928 353.414 494.932" stroke="#CCCCCC" stroke-miterlimit="10"/>
<path d="M324.793 502.76C328.21 501.907 331.627 500.91 334.902 500.057" stroke="#CCCCCC" stroke-miterlimit="10"/>
<path d="M334.191 477.572C331.059 478.568 327.926 479.564 324.794 480.703" stroke="#CCCCCC" stroke-miterlimit="10"/>
<path d="M352.984 471.311C349.852 472.307 346.719 473.303 343.587 474.441" stroke="#CCCCCC" stroke-miterlimit="10"/>
<path d="M379.188 462.771C372.353 465.048 365.518 467.325 358.683 469.46" stroke="#CCCCCC" stroke-miterlimit="10"/>
<path d="M334.047 453.238C330.914 454.377 327.924 455.373 324.792 456.511" stroke="#CCCCCC" stroke-miterlimit="10"/>
<path d="M353.414 446.406C349.997 447.545 346.722 448.825 343.304 449.964" stroke="#CCCCCC" stroke-miterlimit="10"/>
<path d="M379.188 437.299C372.495 439.718 365.66 441.995 358.968 444.414" stroke="#CCCCCC" stroke-miterlimit="10"/>
<path d="M359.11 419.653C365.803 417.092 372.495 414.53 379.188 411.969" stroke="#CCCCCC" stroke-miterlimit="10"/>
<path d="M343.16 425.772C346.577 424.491 349.852 423.21 353.27 421.93" stroke="#CCCCCC" stroke-miterlimit="10"/>
<path d="M324.793 432.747C328.21 431.466 331.485 430.185 334.902 428.904" stroke="#CCCCCC" stroke-miterlimit="10"/>
<path d="M333.906 405.992C330.916 407.273 327.926 408.411 324.936 409.692" stroke="#CCCCCC" stroke-miterlimit="10"/>
<path d="M352.699 398.166C349.709 399.447 346.719 400.585 343.729 401.866" stroke="#CCCCCC" stroke-miterlimit="10"/>
<path d="M379.188 387.352C372.495 390.055 365.803 392.901 359.11 395.605" stroke="#CCCCCC" stroke-miterlimit="10"/>
<path d="M359.108 371.27C365.801 368.281 372.493 365.15 379.043 362.162" stroke="#CCCCCC" stroke-miterlimit="10"/>
<path d="M343.017 378.671C346.292 377.106 349.709 375.683 352.984 374.117" stroke="#CCCCCC" stroke-miterlimit="10"/>
<path d="M324.794 386.925C328.069 385.359 331.487 383.936 334.762 382.371" stroke="#CCCCCC" stroke-miterlimit="10"/>
<path d="M334.332 358.748C331.199 360.313 328.067 362.021 324.792 363.586" stroke="#CCCCCC" stroke-miterlimit="10"/>
<path d="M352.414 349.498C349.566 350.921 346.718 352.344 343.728 353.909" stroke="#CCCCCC" stroke-miterlimit="10"/>
<path d="M379.188 335.979C372.638 339.252 366.088 342.667 359.538 345.94" stroke="#CCCCCC" stroke-miterlimit="10"/>
<path d="M359.395 321.464C365.945 317.906 372.638 314.491 379.188 310.934" stroke="#CCCCCC" stroke-miterlimit="10"/>
<path d="M343.874 329.859C347.006 328.152 350.139 326.444 353.414 324.736" stroke="#CCCCCC" stroke-miterlimit="10"/>
<path d="M324.792 339.963C327.924 338.255 331.057 336.547 334.332 334.84" stroke="#CCCCCC" stroke-miterlimit="10"/>
<path d="M334.332 312.926C331.199 314.776 328.067 316.626 324.934 318.476" stroke="#CCCCCC" stroke-miterlimit="10"/>
<path d="M353.129 301.826C349.996 303.676 346.864 305.526 343.731 307.376" stroke="#CCCCCC" stroke-miterlimit="10"/>
<path d="M379.188 286.172C372.638 290.156 365.945 293.999 359.395 297.983" stroke="#CCCCCC" stroke-miterlimit="10"/>
<path d="M358.824 272.939C365.516 268.813 372.351 264.686 379.043 260.701" stroke="#CCCCCC" stroke-miterlimit="10"/>
<path d="M343.588 282.188C346.721 280.338 349.854 278.488 352.844 276.496" stroke="#CCCCCC" stroke-miterlimit="10"/>
<path d="M324.792 293.572C328.067 291.58 331.342 289.588 334.617 287.596" stroke="#CCCCCC" stroke-miterlimit="10"/>
<path d="M335.043 263.973C331.626 266.107 328.208 268.384 324.791 270.519" stroke="#CCCCCC" stroke-miterlimit="10"/>
<path d="M352.699 252.447C349.424 254.582 346.149 256.716 342.732 258.851" stroke="#CCCCCC" stroke-miterlimit="10"/>
<path d="M379.188 235.371C372.638 239.64 365.945 243.909 359.395 248.178" stroke="#CCCCCC" stroke-miterlimit="10"/>
<path d="M359.538 223.701C366.088 219.289 372.638 214.736 379.188 210.324" stroke="#CCCCCC" stroke-miterlimit="10"/>
<path d="M343.873 234.232C346.863 232.24 349.854 230.106 352.844 228.113" stroke="#CCCCCC" stroke-miterlimit="10"/>
<path d="M324.792 247.181C327.924 245.047 330.914 243.054 334.047 240.92" stroke="#CCCCCC" stroke-miterlimit="10"/>
<path d="M334.477 216.871C331.202 219.148 328.069 221.425 324.794 223.702" stroke="#CCCCCC" stroke-miterlimit="10"/>
<path d="M352.699 203.779C349.424 206.056 346.292 208.333 343.017 210.61" stroke="#CCCCCC" stroke-miterlimit="10"/>
<path d="M379.188 184.994C372.495 189.832 365.803 194.528 359.11 199.367" stroke="#CCCCCC" stroke-miterlimit="10"/>
<path d="M358.826 174.749C365.66 169.626 372.353 164.361 379.188 159.238" stroke="#CCCCCC" stroke-miterlimit="10"/>
<path d="M343.016 186.703C346.149 184.284 349.281 181.865 352.414 179.588" stroke="#CCCCCC" stroke-miterlimit="10"/>
<path d="M324.793 200.647C328.21 198.086 331.627 195.524 334.902 192.963" stroke="#CCCCCC" stroke-miterlimit="10"/>
<path d="M334.047 170.623C331.057 173.042 327.924 175.461 324.934 178.023" stroke="#CCCCCC" stroke-miterlimit="10"/>
<path d="M352.984 155.254C349.709 157.958 346.434 160.519 343.159 163.223" stroke="#CCCCCC" stroke-miterlimit="10"/>
<path d="M379.188 134.191C372.495 139.599 365.803 145.006 359.11 150.414" stroke="#CCCCCC" stroke-miterlimit="10"/>
<path d="M358.966 125.939C365.658 120.389 372.351 114.839 379.043 109.289" stroke="#CCCCCC" stroke-miterlimit="10"/>
<path d="M343.587 138.746C346.862 136.042 350.137 133.339 353.27 130.635" stroke="#CCCCCC" stroke-miterlimit="10"/>
<path d="M324.794 154.258C328.069 151.554 331.344 148.85 334.477 146.146" stroke="#CCCCCC" stroke-miterlimit="10"/>
<path d="M334.332 123.377C331.199 126.223 328.067 128.927 324.792 131.773" stroke="#CCCCCC" stroke-miterlimit="10"/>
<path d="M353.27 106.586C349.852 109.574 346.435 112.563 343.017 115.693" stroke="#CCCCCC" stroke-miterlimit="10"/>
<path d="M379.188 83.6738C372.495 89.5083 365.945 95.485 359.253 101.319" stroke="#CCCCCC" stroke-miterlimit="10"/>
<path d="M359.395 76.1317C365.945 70.155 372.638 64.1782 379.188 58.3438" stroke="#CCCCCC" stroke-miterlimit="10"/>
<path d="M343.159 90.6476C346.292 87.8015 349.567 84.9555 352.699 82.1094" stroke="#CCCCCC" stroke-miterlimit="10"/>
<path d="M324.792 107.155C327.924 104.309 331.199 101.463 334.332 98.6172" stroke="#CCCCCC" stroke-miterlimit="10"/>
<path d="M254.879 276.922L233.52 270.092V489.24L254.879 492.37V276.922Z" stroke="#CCCCCC" stroke-miterlimit="10"/>
<path d="M219.422 265.397L197.921 258.424" stroke="#CCCCCC" stroke-miterlimit="10"/>
<path d="M197.921 493.225L219.422 496.64" stroke="#CCCCCC" stroke-miterlimit="10"/>
<path d="M160.474 246.328V517.417L185.25 520.263V254.439L160.474 246.328Z" stroke="#CCCCCC" stroke-miterlimit="10"/>
<path d="M233.52 525.386V498.775" stroke="#CCCCCC" stroke-miterlimit="10"/>
<path d="M219.423 265.396V487.106L233.52 489.24V270.093L219.423 265.396Z" stroke="#CCCCCC" stroke-miterlimit="10"/>
<path d="M197.922 521.543V493.225" stroke="#CCCCCC" stroke-miterlimit="10"/>
<path d="M197.921 258.424L185.248 254.439V520.263L219.422 524.105V496.64L197.921 493.225" stroke="#CCCCCC" stroke-miterlimit="10"/>
<path d="M185.25 254.439V254.297" stroke="#CCCCCC" stroke-miterlimit="10"/>
<path d="M160.474 274.646L185.25 281.619" stroke="#CCCCCC" stroke-miterlimit="10"/>
<path d="M233.52 295.422L254.879 301.683" stroke="#CCCCCC" stroke-miterlimit="10"/>
<path d="M197.921 285.318L219.422 291.437" stroke="#CCCCCC" stroke-miterlimit="10"/>
<path d="M197.921 288.734L219.422 294.853" stroke="#CCCCCC" stroke-miterlimit="10"/>
<path d="M233.52 298.838L254.879 304.957" stroke="#CCCCCC" stroke-miterlimit="10"/>
<path d="M160.474 278.203L185.25 285.176" stroke="#CCCCCC" stroke-miterlimit="10"/>
<path d="M160.474 296.561L185.25 303.391" stroke="#CCCCCC" stroke-miterlimit="10"/>
<path d="M233.52 316.91L254.879 322.887" stroke="#CCCCCC" stroke-miterlimit="10"/>
<path d="M197.921 306.949L219.422 312.926" stroke="#CCCCCC" stroke-miterlimit="10"/>
<path d="M197.921 316.484L219.422 322.319" stroke="#CCCCCC" stroke-miterlimit="10"/>
<path d="M233.52 326.16L254.879 331.995" stroke="#CCCCCC" stroke-miterlimit="10"/>
<path d="M160.474 306.238L185.25 313.069" stroke="#CCCCCC" stroke-miterlimit="10"/>
<path d="M160.474 334.699L185.25 340.961" stroke="#CCCCCC" stroke-miterlimit="10"/>
<path d="M233.52 353.055L254.879 358.462" stroke="#CCCCCC" stroke-miterlimit="10"/>
<path d="M197.921 344.09L219.422 349.497" stroke="#CCCCCC" stroke-miterlimit="10"/>
<path d="M197.921 347.648L219.422 352.914" stroke="#CCCCCC" stroke-miterlimit="10"/>
<path d="M233.52 356.328L254.879 361.593" stroke="#CCCCCC" stroke-miterlimit="10"/>
<path d="M160.474 338.541L185.25 344.518" stroke="#CCCCCC" stroke-miterlimit="10"/>
<path d="M160.474 356.898L185.25 363.018" stroke="#CCCCCC" stroke-miterlimit="10"/>
<path d="M233.52 374.828L254.879 379.951" stroke="#CCCCCC" stroke-miterlimit="10"/>
<path d="M197.921 366.006L219.422 371.271" stroke="#CCCCCC" stroke-miterlimit="10"/>
<path d="M197.921 375.682L219.422 380.947" stroke="#CCCCCC" stroke-miterlimit="10"/>
<path d="M233.52 384.361L254.879 389.484" stroke="#CCCCCC" stroke-miterlimit="10"/>
<path d="M160.474 366.717L185.25 372.694" stroke="#CCCCCC" stroke-miterlimit="10"/>
<path d="M160.474 396.031L185.25 400.727" stroke="#CCCCCC" stroke-miterlimit="10"/>
<path d="M233.52 409.977L254.879 414.103" stroke="#CCCCCC" stroke-miterlimit="10"/>
<path d="M197.921 403.146L219.422 407.273" stroke="#CCCCCC" stroke-miterlimit="10"/>
<path d="M197.921 406.42L219.422 410.547" stroke="#CCCCCC" stroke-miterlimit="10"/>
<path d="M233.52 413.25L254.879 417.235" stroke="#CCCCCC" stroke-miterlimit="10"/>
<path d="M160.474 399.305L185.25 404.001" stroke="#CCCCCC" stroke-miterlimit="10"/>
<path d="M160.474 417.803L185.25 422.499" stroke="#CCCCCC" stroke-miterlimit="10"/>
<path d="M233.52 431.465L254.879 435.449" stroke="#CCCCCC" stroke-miterlimit="10"/>
<path d="M197.921 424.777L219.422 428.904" stroke="#CCCCCC" stroke-miterlimit="10"/>
<path d="M197.921 434.881L219.422 438.723" stroke="#CCCCCC" stroke-miterlimit="10"/>
<path d="M233.52 441.283L254.879 445.125" stroke="#CCCCCC" stroke-miterlimit="10"/>
<path d="M160.474 428.191L185.25 432.603" stroke="#CCCCCC" stroke-miterlimit="10"/>
<path d="M160.474 455.941L185.25 459.784" stroke="#CCCCCC" stroke-miterlimit="10"/>
<path d="M255.449 470.884L254.88 470.742L233.521 467.469" stroke="#CCCCCC" stroke-miterlimit="10"/>
<path d="M197.921 461.775L219.422 465.191" stroke="#CCCCCC" stroke-miterlimit="10"/>
<path d="M197.921 465.475L219.422 468.747" stroke="#CCCCCC" stroke-miterlimit="10"/>
<path d="M233.52 471.025L254.879 474.298" stroke="#CCCCCC" stroke-miterlimit="10"/>
<path d="M160.474 459.641L185.25 463.483" stroke="#CCCCCC" stroke-miterlimit="10"/>
<path d="M197.921 483.832L219.422 487.105" stroke="#CCCCCC" stroke-miterlimit="10"/>
<path d="M160.474 478.141L185.25 481.841" stroke="#CCCCCC" stroke-miterlimit="10"/>
<path d="M233.52 499.345V525.386L254.879 527.948V502.191L233.52 498.775V499.345Z" stroke="#CCCCCC" stroke-miterlimit="10"/>
<path d="M160.474 487.391L185.25 491.375" stroke="#CCCCCC" stroke-miterlimit="10"/>
<path d="M313.402 168.203V153.118L301.726 149.703V276.496" stroke="#CCCCCC" stroke-miterlimit="10"/>
<path d="M290.336 272.795V171.475L299.164 164.645V275.072" stroke="#CCCCCC" stroke-miterlimit="10"/>
<path d="M294.746 273.223V168.061" stroke="#CCCCCC" stroke-miterlimit="10"/>
<path d="M318.812 172.756C318.101 173.325 304.716 184.425 304.716 184.425V176.455L318.812 164.502" stroke="#CCCCCC" stroke-miterlimit="10"/>
<path d="M318.813 186.703L304.717 198.23V206.768L319.383 194.814" stroke="#CCCCCC" stroke-miterlimit="10"/>
<path d="M318.812 208.189L304.716 219.858V228.539L320.094 215.447" stroke="#CCCCCC" stroke-miterlimit="10"/>
<path d="M319.383 229.963L304.717 241.632V250.17L319.383 238.216" stroke="#CCCCCC" stroke-miterlimit="10"/>
<path d="M319.383 251.877L304.717 263.119V271.373L318.956 260.557" stroke="#CCCCCC" stroke-miterlimit="10"/>
<path d="M304.717 250.17L315.254 255.008" stroke="#CCCCCC" stroke-miterlimit="10"/>
<path d="M304.715 271.373L316.676 276.211" stroke="#CCCCCC" stroke-miterlimit="10"/>
<path d="M318.812 275.072L312.832 279.341" stroke="#CCCCCC" stroke-miterlimit="10"/>
<path d="M304.717 228.539L314.969 233.52" stroke="#CCCCCC" stroke-miterlimit="10"/>
<path d="M304.717 206.768L314.969 211.464" stroke="#CCCCCC" stroke-miterlimit="10"/>
<path d="M304.717 184.568L314.969 189.407" stroke="#CCCCCC" stroke-miterlimit="10"/>
<path d="M546.922 138.603V133.48V115.834L523.285 102.885V121.242L545.925 133.195" stroke="#CCCCCC" stroke-miterlimit="10"/>
<path d="M522.57 117.97L478.429 93.209" stroke="#CCCCCC" stroke-miterlimit="10"/>
<path d="M523.285 140.596L478.432 116.689" stroke="#CCCCCC" stroke-miterlimit="10"/>
<path d="M478.432 141.307L523.285 163.648" stroke="#CCCCCC" stroke-miterlimit="10"/>
<path d="M523.285 186.418L478.432 164.361" stroke="#CCCCCC" stroke-miterlimit="10"/>
<path d="M478.429 188.553L522.57 209.044" stroke="#CCCCCC" stroke-miterlimit="10"/>
<path d="M522.57 232.523L478.429 212.174" stroke="#CCCCCC" stroke-miterlimit="10"/>
<path d="M478.429 236.51L522.57 254.44" stroke="#CCCCCC" stroke-miterlimit="10"/>
<path d="M523.285 277.92L478.432 259.705" stroke="#CCCCCC" stroke-miterlimit="10"/>
<path d="M478.432 283.896L523.285 300.261" stroke="#CCCCCC" stroke-miterlimit="10"/>
<path d="M523.285 323.029L478.432 307.803" stroke="#CCCCCC" stroke-miterlimit="10"/>
<path d="M478.432 330.855L523.285 345.37" stroke="#CCCCCC" stroke-miterlimit="10"/>
<path d="M522.57 368.141L478.429 354.906" stroke="#CCCCCC" stroke-miterlimit="10"/>
<path d="M478.432 379.523L523.285 390.908" stroke="#CCCCCC" stroke-miterlimit="10"/>
<path d="M522.57 414.103L478.429 402.719" stroke="#CCCCCC" stroke-miterlimit="10"/>
<path d="M478.429 426.484L522.57 436.303" stroke="#CCCCCC" stroke-miterlimit="10"/>
<path d="M523.285 459.214L478.432 450.391" stroke="#CCCCCC" stroke-miterlimit="10"/>
<path d="M478.432 474.156L523.285 482.41" stroke="#CCCCCC" stroke-miterlimit="10"/>
<path d="M522.57 505.179L478.429 497.494" stroke="#CCCCCC" stroke-miterlimit="10"/>
<path d="M478.432 521.543L523.285 528.089" stroke="#CCCCCC" stroke-miterlimit="10"/>
<path d="M523.285 550.859L479.144 545.594" stroke="#CCCCCC" stroke-miterlimit="10"/>
<path d="M478.432 569.357L523.285 573.484" stroke="#CCCCCC" stroke-miterlimit="10"/>
<path d="M522.57 599.811L478.429 596.965" stroke="#CCCCCC" stroke-miterlimit="10"/>
<path d="M478.433 618.736L523.855 620.302" stroke="#CCCCCC" stroke-miterlimit="10"/>
<path d="M523.854 577.184L574.402 580.883" stroke="#CCCCCC" stroke-miterlimit="10"/>
<path d="M585.509 696.862C585.082 693.732 584.797 690.601 585.224 687.47C585.366 686.047 585.793 684.766 585.793 683.343C585.936 680.497 584.939 677.793 585.224 674.947C584.939 675.944 586.221 676.655 587.075 676.37C587.929 676.086 588.641 675.232 589.068 674.378C589.211 674.663 589.353 674.947 589.496 675.232C589.638 674.805 589.923 674.378 590.065 673.951C590.208 673.667 590.35 673.382 590.635 673.24C590.777 673.097 591.062 673.097 591.347 673.097C592.201 673.097 592.913 673.097 593.767 673.097C592.913 672.528 591.916 672.101 591.062 671.532C591.347 671.39 591.631 671.248 591.916 671.105C591.347 670.821 590.777 670.394 590.635 669.824C591.489 669.682 592.201 669.54 593.055 669.398C593.055 669.113 593.055 668.971 593.055 668.686C594.052 668.971 595.049 668.544 596.046 668.117C596.758 667.832 597.327 667.548 598.039 667.263C597.47 666.978 597.185 666.267 597.327 665.555C596.046 665.698 594.764 665.982 593.483 666.125C593.91 665.84 594.337 665.84 594.906 665.84C592.628 666.409 590.208 666.694 587.929 666.836C588.926 666.836 589.923 666.694 590.777 665.982C591.631 665.271 591.916 664.132 592.913 663.848C593.625 663.705 594.622 663.99 595.049 663.279C595.191 662.994 595.191 662.425 595.334 662.14C595.618 661.429 596.9 661.429 596.9 660.717C596.9 660.005 595.903 659.863 595.334 660.005C594.622 660.148 593.91 660.148 593.34 660.29C593.483 659.009 593.625 657.729 593.767 656.59C593.767 656.306 593.767 656.021 593.625 655.879C593.483 655.736 593.055 655.736 592.771 655.736C592.343 655.736 591.916 655.309 591.631 655.025C591.062 654.456 590.35 653.886 589.638 653.46C588.072 653.602 586.505 653.317 584.939 652.89C584.512 652.748 584.085 652.606 583.658 652.321C583.23 652.036 583.088 651.467 582.803 651.04C582.234 650.044 581.095 649.475 579.955 649.617C579.813 649.617 579.671 649.617 579.528 649.76C579.386 649.902 579.386 650.187 579.386 650.329C579.101 651.325 577.962 651.752 577.108 651.183C576.253 652.179 574.972 652.748 573.833 652.748C574.26 653.033 574.687 653.317 575.114 653.744C574.402 654.029 573.69 654.171 572.978 654.456C573.406 654.883 573.975 655.594 573.406 656.021C573.263 656.163 572.978 656.163 572.694 656.306C572.551 656.448 572.694 656.875 572.836 656.733C572.694 656.875 572.409 657.159 572.266 657.302C573.263 658.156 574.26 659.152 574.829 660.432C574.26 660.432 573.69 660.575 573.121 660.575C572.978 660.575 572.694 660.575 572.694 660.717C572.551 660.859 572.551 661.002 572.551 661.286C572.409 661.855 571.697 661.998 571.127 662.14C570.558 662.14 569.988 662.14 569.419 662.425C569.846 662.425 569.988 662.994 569.988 663.421C569.846 663.848 569.703 664.275 569.988 664.702C570.131 664.986 570.7 665.271 570.558 665.698C570.558 665.84 570.273 665.982 570.131 665.982C569.703 666.125 569.276 666.409 568.849 666.551C569.134 666.694 569.419 666.978 569.703 667.263C569.988 667.548 569.846 668.117 569.561 668.259C569.419 668.401 569.134 668.401 568.991 668.544C568.849 668.686 568.849 668.828 568.991 668.971C568.991 669.398 569.134 669.967 569.134 670.394C569.134 670.678 569.134 670.963 569.276 671.39C569.703 673.097 571.127 674.663 572.836 675.09C574.545 675.517 576.396 674.947 577.962 675.517C579.101 675.944 579.813 676.94 580.667 677.793C582.234 679.216 584.085 680.355 586.078 681.066C585.936 681.351 585.509 681.636 585.082 681.493" fill="#CCCCCC"/>
<path d="M525.563 695.296C525.42 692.735 525.847 690.031 526.702 687.47C527.129 686.331 527.556 685.193 527.271 684.054C527.129 683.343 526.559 682.631 526.132 681.92C525.705 681.208 525.563 680.354 525.847 679.643C525.99 679.358 526.275 679.074 526.275 678.789C526.417 678.077 525.705 677.508 525.42 676.797C525.278 676.37 525.42 675.943 525.42 675.658C525.563 674.662 525.99 673.381 526.987 673.381C527.556 673.381 528.126 673.808 528.695 674.093C529.55 674.52 530.689 674.52 531.685 674.52C532.54 674.52 533.537 674.52 534.391 674.093C535.815 673.381 536.527 671.816 537.951 671.247C538.378 671.105 538.947 670.962 539.375 670.82C540.656 670.108 540.656 668.401 540.229 666.978C539.944 665.697 539.375 664.416 538.805 663.278C538.235 662.282 537.523 661.286 537.523 660.289C537.523 659.578 537.523 659.009 537.666 658.297C537.808 656.163 537.239 654.028 536.1 652.463C534.248 649.759 530.974 648.336 527.841 647.055C526.559 646.486 525.278 646.059 523.996 646.201C523.427 646.344 522.857 646.486 522.715 647.055C522.572 647.34 522.715 647.624 522.572 647.909C522.43 649.047 521.006 649.474 520.009 649.901C519.013 650.328 518.016 650.897 517.162 651.751C516.877 652.036 516.734 652.178 516.45 652.463C516.307 652.747 516.165 653.032 516.023 653.174C515.738 653.459 515.453 653.601 515.168 653.743C513.602 655.024 514.599 657.728 513.46 659.293C513.032 660.005 512.036 660.432 511.893 661.143C511.608 662.139 512.32 663.278 511.608 663.989C512.463 664.416 513.032 664.986 513.602 665.697C513.175 665.839 512.748 665.839 512.32 666.124C511.893 666.409 511.608 666.835 511.893 667.262C512.036 667.832 512.748 667.974 513.032 668.401C513.887 669.397 512.463 671.247 513.317 672.385C514.029 673.239 515.453 672.812 516.592 673.097C517.019 673.239 517.446 673.524 517.874 673.808C518.87 674.235 520.152 673.808 521.291 673.951C522.43 674.093 523.284 674.947 524.139 675.801C524.424 676.085 524.566 676.228 524.708 676.512C524.851 676.797 524.851 677.081 524.993 677.508C525.278 679.358 525.705 681.208 526.417 683.058C526.559 683.485 526.702 683.77 526.702 684.197C526.702 684.623 526.702 685.05 526.559 685.335C526.132 687.754 525.847 690.173 525.847 692.592" fill="#CCCCCC"/>
<path d="M403.818 697.999C404.53 693.873 404.388 689.604 404.388 685.334C404.388 678.788 404.673 672.242 405.385 665.696C405.385 665.27 405.527 664.7 405.669 664.273C405.954 663.704 406.524 663.42 406.951 663.135C408.802 661.854 410.511 660.431 411.934 658.724C412.789 659.72 411.934 661.285 412.362 662.566C412.789 663.704 414.213 664.131 415.067 664.985C416.491 666.55 416.064 669.396 417.772 670.393C418.342 670.108 419.054 669.823 419.481 669.396C419.908 668.969 420.051 668.116 419.624 667.546C419.481 667.262 419.054 667.12 418.769 666.977C415.779 665.412 415.067 661.427 414.782 658.012C415.637 657.87 416.491 657.585 417.345 657.87C418.2 658.154 419.054 658.724 419.054 659.577C419.054 660.004 418.912 660.431 419.054 660.858C419.339 661.854 420.763 661.854 421.759 662.281C423.183 662.85 424.038 664.985 425.604 665.127C427.028 665.27 428.167 663.562 427.74 662.139C427.313 660.716 426.031 659.862 424.607 659.435C423.183 659.008 421.759 659.008 420.335 658.866C420.051 658.866 419.766 658.724 419.624 658.439C419.624 658.297 419.624 658.154 419.624 658.012C420.193 656.447 422.329 656.02 423.895 656.02C425.604 656.02 427.455 656.447 428.879 655.593C428.594 654.455 428.167 653.316 427.313 652.462C426.173 651.324 424.607 650.897 423.183 650.328C421.759 649.616 420.335 648.335 420.62 646.77C420.905 645.347 422.187 644.493 423.61 644.209C423.895 644.209 424.18 644.066 424.465 644.209C424.75 644.351 425.034 644.778 425.177 645.062C425.604 645.632 426.173 646.059 426.885 645.916C427.597 645.916 428.167 645.347 428.309 644.636C428.309 643.924 427.882 643.213 427.313 642.786C424.892 640.082 423.183 636.951 422.044 633.536C420.335 634.105 419.054 635.67 418.769 637.52C418.627 638.09 418.627 638.801 418.057 638.943C417.772 639.086 417.345 638.943 417.061 638.801C415.209 638.09 413.643 636.524 412.077 635.386C408.375 632.824 403.676 631.971 400.401 628.84C400.258 630.405 400.401 631.971 400.686 633.394C399.404 633.678 398.123 633.251 397.268 632.397C396.414 633.394 394.848 633.678 393.709 632.967C393.566 633.678 392.854 634.247 392 634.247C391.288 634.247 390.576 634.105 389.864 633.82C391.003 635.386 391.857 637.093 392.285 638.943C391.43 638.943 390.576 638.943 389.864 639.37C389.152 639.655 388.44 640.509 388.44 641.363C388.44 641.932 388.867 642.643 388.582 643.213C388.44 643.639 387.871 643.924 387.301 644.066C385.877 644.493 384.453 644.636 383.172 644.493C383.884 646.912 380.609 648.762 380.466 651.324C380.324 653.601 383.029 655.451 385.307 655.024C384.311 656.162 383.172 657.585 383.029 659.151C382.887 660.716 384.311 662.424 385.877 661.997C386.731 661.712 387.586 660.858 388.44 661.143C389.437 661.712 389.152 663.847 390.291 663.847C389.864 664.7 389.437 665.697 388.867 666.55C390.006 666.835 391.145 666.55 392.142 665.981C394.563 664.7 396.556 662.139 396.556 659.293C397.411 659.862 398.123 660.858 398.265 661.997C398.835 662.139 399.119 661.285 399.689 661C401.113 660.574 401.113 663.847 402.537 663.704C403.249 661.143 402.821 658.439 401.255 656.304C402.964 656.02 404.388 657.727 404.53 659.293C404.673 660.858 404.103 662.566 403.676 664.131C402.964 667.12 402.821 670.393 403.391 673.381C403.676 675.089 404.245 676.654 404.103 678.362C403.961 680.354 402.964 682.061 402.394 683.911C401.967 685.619 401.825 687.469 401.825 689.319C401.825 690.884 401.682 692.592 401.682 694.157C401.682 695.296 401.682 696.719 402.679 697.288" fill="#CCCCCC"/>
<path d="M330.346 689.32C332.34 682.347 332.482 674.805 330.773 667.832C329.777 663.705 328.353 659.009 331.058 655.736C332.055 656.163 333.194 656.59 334.191 657.017C334.618 656.448 335.045 656.021 335.472 655.451C336.042 656.448 336.754 657.444 337.323 658.298C337.466 656.875 338.605 655.736 339.601 654.74C340.598 653.744 341.88 652.748 342.307 651.325C342.734 649.902 342.164 648.052 340.741 647.767C340.171 647.625 339.317 647.767 339.032 647.198C338.89 646.913 339.032 646.486 339.174 646.202C339.744 644.494 340.741 642.502 342.592 642.36C343.873 642.217 345.012 643.071 346.151 643.64C347.291 644.209 348.857 644.352 349.569 643.356C350.138 642.502 349.711 641.363 348.857 640.794C348.002 640.225 347.006 640.083 346.009 640.225C344.158 640.367 342.307 640.794 340.598 641.648C340.171 641.79 339.744 642.075 339.459 641.933C338.178 641.79 338.32 639.798 339.317 639.087C340.313 638.375 341.737 638.375 342.876 638.09C344.87 637.379 346.436 635.244 346.151 633.11C345.867 630.975 344.158 629.125 341.88 628.841C343.161 627.133 343.161 624.714 342.022 623.006C340.883 621.299 338.747 620.302 336.754 620.729C335.757 620.872 334.903 621.299 333.906 621.583C331.343 622.295 328.495 621.156 326.929 619.164C326.217 618.31 325.79 617.172 324.935 616.318C323.227 614.61 320.379 614.895 317.958 615.464C316.534 615.749 314.968 616.318 313.829 617.314C312.69 618.31 312.405 620.302 313.402 621.441C311.123 621.583 308.418 623.006 308.845 625.141C309.13 626.564 310.411 627.418 311.408 628.414C312.405 629.41 312.832 631.402 311.693 631.971C311.266 632.256 310.554 632.114 310.127 632.398C309.557 632.683 309.13 633.252 308.703 633.679C307.279 634.817 305.285 634.533 303.434 633.964C302.865 633.821 302.153 633.537 301.868 632.967C301.583 632.114 302.153 631.26 302.295 630.406C302.438 628.129 299.02 627.56 298.308 625.425C298.023 624.714 298.166 623.86 298.023 623.149C297.596 621.299 295.46 620.445 293.609 619.876C290.477 619.022 287.059 618.737 283.784 619.449C280.937 620.16 277.804 621.725 275.099 620.302C274.956 622.152 273.248 623.718 271.254 624.145C269.403 624.572 267.41 624.287 265.559 623.718C264.989 623.575 264.419 623.433 263.992 623.575C263.565 623.718 263.28 624.145 262.995 624.429C261.572 626.422 260.005 628.556 258.581 630.548C257.442 631.971 256.446 633.964 257.3 635.529C259.721 635.956 262.141 635.529 264.419 634.533C263.138 637.094 261.002 639.229 258.297 640.367C257.727 640.652 257.015 640.794 256.73 641.363C256.018 642.502 257.3 643.925 256.873 645.206C258.297 645.49 259.863 645.633 261.287 645.917C261.714 645.917 262.141 646.059 262.284 646.344C262.853 646.913 262.426 647.909 261.856 648.336C261.287 648.763 260.432 648.906 259.72 649.19C257.3 650.186 256.73 653.886 258.439 655.736C260.717 655.736 262.568 654.171 264.419 652.89C266.27 651.609 268.691 650.613 270.685 651.752C270.4 652.89 269.261 653.744 268.122 654.313C266.982 654.882 265.843 655.451 265.131 656.448C264.419 657.444 264.989 659.294 266.27 659.294C267.979 659.436 268.264 656.875 269.545 655.736C270.969 654.455 273.532 655.025 274.671 653.459C275.383 652.463 275.241 650.755 276.38 650.329C276.807 650.186 277.235 650.329 277.519 650.471C279.94 651.467 281.506 653.744 282.218 656.163C282.93 658.582 282.93 661.286 282.93 663.847C282.93 672.386 282.788 680.924 282.788 689.462C282.788 690.174 282.788 691.17 283.5 691.597C284.212 692.024 285.208 691.597 285.636 690.885C286.063 690.174 286.063 689.32 286.063 688.466C286.063 681.92 286.205 675.374 285.066 668.97C284.639 666.267 283.927 663.705 284.212 661.001C284.496 658.013 285.636 655.167 286.917 652.463C285.778 652.036 284.781 651.752 283.642 651.325C283.357 651.182 282.93 651.04 282.788 650.755C281.933 649.902 282.93 648.479 283.927 647.625C285.066 647.482 284.924 649.332 285.636 650.186C287.202 651.894 290.192 647.482 292.043 649.048C292.613 649.617 292.613 650.613 292.185 651.325C291.758 652.036 291.046 652.463 290.334 652.89C292.613 654.313 294.891 655.736 297.169 657.159C298.166 657.871 299.732 658.44 300.587 657.586C301.868 656.163 299.447 653.886 300.017 652.036C300.587 650.471 303.007 650.613 304.431 651.609C305.855 652.605 306.709 654.313 308.276 655.025C309.13 655.451 309.984 655.452 310.839 655.594C314.398 655.878 317.958 656.163 321.66 656.448C320.948 655.167 320.236 653.602 320.806 652.178C321.375 650.755 323.511 650.044 324.223 651.325C324.793 652.321 324.081 653.459 323.511 654.455C322.372 656.59 321.803 659.009 321.945 661.286C322.799 661.571 323.796 661.855 324.65 662.14C324.793 660.432 325.22 658.867 326.217 657.444C328.78 660.005 329.065 663.847 329.207 667.405C329.349 672.101 329.492 676.797 329.777 681.351C329.919 683.77 329.919 686.331 329.207 688.751C329.634 689.035 330.061 689.32 330.631 689.177" fill="#CCCCCC"/>
<path d="M179.413 658.296C178.132 659.435 177.135 661 176.565 662.708C176.138 663.988 176.138 665.411 176.138 666.834C175.996 672.527 175.711 678.076 175.569 683.769C175.569 684.48 175.426 685.192 174.999 685.619C174.572 686.045 173.433 685.761 173.575 685.192C175.142 683.057 175.142 680.211 175.142 677.507C175.142 673.665 175.142 669.681 174.999 665.838C174.999 663.561 174.857 661 173.148 659.577C171.582 658.154 169.161 658.154 167.168 658.723C165.174 659.292 163.038 660.146 161.045 660.146C158.909 660.146 156.631 659.008 156.204 656.873C156.061 655.735 156.488 654.454 155.919 653.458C155.634 652.889 155.064 652.319 155.064 651.75C154.922 650.327 156.773 649.616 157.2 648.193C157.485 647.339 157.058 646.485 156.346 645.916C155.634 645.347 154.78 645.204 153.925 645.062C153.356 644.92 152.644 644.92 152.217 644.493C151.647 643.924 151.789 643.07 152.217 642.358C152.644 641.647 153.213 641.22 153.925 640.793C156.488 638.658 157.77 635.528 160.048 632.966C160.475 632.539 161.045 631.97 161.614 631.828C162.896 631.401 164.32 632.112 165.744 632.397C166.029 632.397 166.456 632.539 166.598 632.255C166.74 632.112 166.598 631.828 166.598 631.685C166.171 630.262 165.174 629.124 163.75 628.555C163.038 628.27 162.184 627.986 162.184 627.274C162.184 626.989 162.469 626.705 162.611 626.42C163.893 624.997 165.459 623.859 167.168 623.005C168.022 622.578 169.019 622.151 169.731 621.44C170.158 621.013 170.443 620.443 171.012 620.159C171.867 619.732 172.863 620.301 173.575 620.87C174.287 621.44 174.999 622.151 175.853 622.293C177.277 622.436 178.701 621.155 179.983 621.866C180.41 622.151 180.695 622.72 180.98 623.29C182.119 625.282 184.824 626.136 186.96 625.282C186.96 626.136 186.96 627.132 186.96 627.986C186.96 628.27 186.96 628.555 187.102 628.697C187.245 628.839 187.529 628.982 187.814 628.982C188.669 629.124 189.523 629.124 190.377 629.266C189.95 630.405 187.957 630.547 187.529 631.685C187.102 632.966 188.669 633.962 189.665 634.958C190.235 635.528 190.52 636.381 190.804 637.235C191.089 638.516 191.374 639.797 190.804 641.077C190.235 642.358 189.238 643.354 187.814 643.212C188.953 643.781 190.092 644.208 191.089 644.777C191.801 645.062 192.513 645.347 193.083 645.916C195.219 647.623 194.934 651.608 192.656 653.031C192.371 653.173 191.944 653.458 192.086 653.743C192.086 653.885 192.228 654.027 192.371 654.169C192.798 654.881 192.228 655.735 191.516 656.162C190.804 656.589 189.95 656.446 189.238 656.446C188.811 656.446 188.241 656.446 187.957 656.019C187.672 655.735 187.53 655.308 187.387 654.881C186.675 652.319 185.109 649.9 182.688 648.904C181.976 648.62 181.264 648.477 180.552 648.62C179.84 648.762 179.271 649.473 179.271 650.185C179.271 651.323 180.695 651.75 181.691 652.462C182.973 653.316 183.543 655.023 184.112 656.589C184.254 656.873 184.397 657.3 184.255 657.585C183.97 658.296 182.973 658.439 182.261 658.296C181.549 658.154 180.552 657.869 179.983 658.439" fill="#CCCCCC"/>
<path d="M103.945 681.636C103.66 678.363 104.799 674.948 106.65 672.102C108.359 669.256 110.779 666.836 113.058 664.417C114.054 663.421 115.051 662.425 115.905 661.429C113.2 661.998 111.491 664.702 110.067 666.979C108.644 669.398 106.935 671.959 104.229 672.671C104.514 670.252 104.799 667.975 105.084 665.556C105.226 664.702 105.226 663.99 105.653 663.279C106.223 662.14 107.22 661.287 108.216 660.575C109.213 659.864 110.352 659.01 111.064 658.014C111.776 656.875 111.776 655.31 110.922 654.456C108.786 656.733 106.935 659.152 105.226 661.714C105.938 659.294 106.365 656.875 106.508 654.456C106.65 653.46 106.508 652.464 105.796 651.895C103.945 654.883 103.375 658.583 103.233 662.14C103.09 665.698 103.375 669.256 103.09 672.813C101.382 668.971 99.8154 665.129 98.2491 661.287C97.2523 658.867 96.398 656.306 96.6828 653.744C95.1165 659.437 96.8251 665.556 100.243 670.394C101.239 671.675 102.236 672.956 102.663 674.379C103.375 676.371 102.806 678.648 103.66 680.64C102.094 670.963 95.4013 662.71 93.9773 653.033C93.9773 652.748 93.8349 652.321 93.6926 652.179C93.4078 652.037 93.123 651.895 92.8382 651.895C92.1262 651.61 91.4143 650.898 91.4143 650.045C91.4143 649.76 91.4143 649.475 91.2719 649.191C90.8448 648.479 89.7056 649.048 89.1361 648.622C88.5665 648.052 89.1361 647.056 89.2784 646.345C89.7056 644.779 87.9969 643.214 86.4306 643.783C87.0002 641.222 87.7122 638.518 88.2817 635.956C88.4241 635.387 88.5665 634.818 88.4241 634.249C88.2817 633.537 87.7122 632.684 87.9969 631.972C88.1393 631.545 88.4241 631.403 88.8513 631.118C89.7056 630.549 90.56 629.98 91.5567 629.553C92.5534 629.268 93.6926 629.268 94.5469 629.98C94.9741 630.264 95.2588 630.691 95.686 630.976C96.5403 631.403 97.6795 631.118 98.6762 630.976C101.097 630.691 103.517 631.687 105.938 631.687C106.792 631.687 107.504 631.545 108.359 631.687C109.498 631.972 110.495 632.684 111.491 633.395C111.776 633.537 112.061 633.68 112.346 633.822C112.63 633.822 113.058 633.68 113.342 633.537C114.766 632.684 116.617 632.114 117.899 632.968C118.326 633.253 118.611 633.537 119.038 633.822C120.462 634.676 122.313 634.533 123.595 633.537C123.879 633.253 124.164 632.826 124.591 632.684C125.303 632.399 126.158 632.684 126.87 632.826C128.578 633.395 130.145 634.107 131.853 634.676C132.28 634.818 132.85 635.103 132.85 635.53C132.992 635.957 132.708 636.383 132.423 636.668C131.568 637.664 130.572 638.518 129.433 639.23C129.148 639.372 128.863 639.656 128.721 639.941C128.721 640.226 128.863 640.51 129.005 640.795C130.572 642.929 132.138 645.064 133.704 647.341C134.131 647.91 134.416 648.479 134.559 649.048C134.559 649.76 133.989 650.472 133.419 650.329C133.847 650.756 133.704 651.61 133.277 652.037C132.85 652.464 132.28 652.748 131.853 653.318C131.426 654.029 131.426 654.883 130.999 655.452C130.572 656.021 129.86 656.164 129.29 656.591C128.721 656.875 128.151 657.587 128.436 658.298C127.581 658.725 126.442 658.441 125.446 658.441C121.743 658.441 118.896 662.567 115.193 662.425C114.909 661.571 114.339 660.86 113.627 660.433C113.627 661.002 112.915 661.287 112.488 661.144C111.919 661.002 111.491 660.575 111.064 660.433C110.21 660.148 109.071 660.575 108.359 660.006C107.504 659.294 108.074 658.014 107.789 656.875C107.504 655.594 105.796 655.025 104.799 655.737C103.945 656.306 103.517 657.444 102.521 657.444C101.382 657.444 100.812 655.879 99.673 655.452C98.8186 655.168 97.9643 655.737 97.1099 656.021C96.2556 656.306 94.9741 655.879 95.1165 655.025" fill="#CCCCCC"/>
<path d="M15.0939 679.216C15.9482 674.663 15.9482 669.824 15.2362 665.271C15.0938 663.99 14.809 662.709 14.6667 661.286C14.3819 659.151 14.6667 656.875 14.9515 654.74C15.8058 655.167 16.6601 655.594 17.6569 656.021C17.9417 654.882 18.3688 653.886 19.0808 652.89C20.3623 654.882 22.071 656.732 24.0645 658.155C25.346 657.017 26.2003 655.309 26.0579 653.602C26.7699 653.886 27.6242 653.886 28.4786 653.886C28.7634 653.886 29.1905 653.744 29.3329 653.459C29.4753 652.748 28.3362 652.748 28.0514 652.036C27.7666 651.609 28.1938 650.898 28.621 650.756C29.0481 650.471 29.6177 650.329 30.0449 650.044C31.0416 649.332 30.8992 647.625 30.6144 646.344C30.472 646.06 30.472 645.633 30.1872 645.348C29.6177 644.494 28.1938 644.779 27.1971 644.494C26.0579 644.21 25.346 643.071 25.346 641.933C25.346 641.648 25.4884 641.364 25.346 641.079C25.2036 640.652 24.634 640.367 24.3493 640.083C23.9221 639.371 24.4916 638.517 24.7764 637.806C24.7764 637.664 24.9188 637.521 24.9188 637.379C24.9188 637.237 24.7764 637.237 24.634 637.094C23.0677 635.956 21.2167 634.675 19.3656 635.244C18.796 635.387 18.0841 635.671 17.7993 635.244C17.6569 635.102 17.6569 634.818 17.3721 634.675C17.0873 634.391 16.6601 634.391 16.233 634.533C15.8058 634.675 15.521 634.96 15.2362 635.102C13.9547 635.814 12.246 635.244 11.3917 636.383C11.1069 636.81 10.9645 637.379 10.3949 637.521C10.1102 637.664 9.82536 637.521 9.54058 637.379C7.97429 636.81 6.2656 636.098 4.69931 635.529C4.12974 636.383 4.8417 637.948 3.98735 638.517C3.70257 638.66 3.27542 638.66 2.84824 638.802C2.13629 638.944 1.70912 639.656 1.42434 640.225C1.28195 640.937 1.28194 641.648 1.28194 642.36C1.28194 642.644 1.28195 643.071 1.56674 643.213C1.85152 643.498 2.42105 643.356 2.56344 643.783C2.70584 643.925 2.70584 644.067 2.70584 644.21C2.56345 645.063 1.9939 645.633 1.42434 646.344C0.854773 647.056 0.42761 647.909 0.854782 648.621C1.28195 649.332 2.27865 649.475 3.133 649.617C2.56344 650.044 1.85151 650.471 1.42434 651.04C0.427601 652.036 -0.284344 653.459 0.142828 654.882C0.712391 656.448 2.70586 656.875 4.41455 657.017C4.69933 657.017 5.12648 657.017 5.41126 656.875C5.55365 656.732 5.69607 656.59 5.83846 656.448C6.26563 655.878 6.69279 655.167 7.11997 654.598C7.97431 656.163 5.83846 658.155 6.55041 659.863C7.68954 659.863 8.54386 658.867 8.97103 657.728C9.3982 656.59 9.39822 655.452 9.96778 654.455C9.96778 654.313 10.1101 654.171 10.2525 654.171C10.3949 654.171 10.3949 654.171 10.5373 654.313C11.9612 655.309 13.1004 656.875 13.5275 658.582C13.8123 659.863 13.8123 661.144 13.8123 662.424C13.9547 664.559 14.6667 666.694 15.0939 668.686C15.6634 671.247 15.8058 673.951 15.521 676.655C15.3786 677.651 15.2362 678.789 14.5243 679.359" fill="#CCCCCC"/>
<path d="M599.464 632.541C601.03 630.122 602.739 627.845 604.305 625.426C604.874 624.572 605.444 623.718 605.871 622.722C604.59 624.999 602.027 626.28 600.033 628.13C599.179 625.141 600.603 621.868 600.318 618.738C599.606 620.872 598.752 623.007 597.755 625.141C597.755 623.291 597.755 621.441 597.043 619.592C596.758 620.872 596.331 622.153 595.761 623.291C594.765 621.868 594.195 620.161 594.195 618.453C594.195 619.876 594.195 621.157 594.195 622.58C594.195 623.291 594.195 624.003 593.91 624.572C592.771 622.865 591.774 620.872 591.063 618.88C591.063 620.588 590.92 622.295 590.778 624.003C589.923 622.295 589.211 620.588 588.927 618.738C588.784 620.73 588.642 622.722 588.642 624.714C588.215 623.291 588.072 621.868 588.072 620.445C587.93 622.722 587.93 624.857 587.93 627.134C586.364 625.426 585.367 623.149 584.94 620.872C584.797 624.857 585.794 628.699 587.93 631.972C588.072 632.114 588.072 632.257 588.215 632.399C588.357 632.541 588.642 632.541 588.927 632.541C589.781 632.541 590.493 632.399 591.347 632.399C593.626 632.257 595.904 633.253 598.04 632.826" fill="#CCCCCC"/>
<path d="M580.951 632.257C581.806 632.114 582.233 631.118 582.375 630.407C583.372 627.418 583.799 624.288 583.657 621.299C583.657 623.434 583.087 625.426 582.091 627.276C581.948 624.43 581.521 621.584 580.667 618.738C580.382 621.299 579.955 623.861 579.243 626.422C578.246 624.145 577.677 621.726 577.677 619.165C577.392 620.872 576.965 622.438 576.537 624.003C575.683 622.153 575.256 620.161 574.971 618.169C574.971 620.73 575.113 623.434 575.113 625.995C573.974 624.288 573.12 622.58 572.55 620.588C572.978 622.438 573.405 624.288 573.69 626.138C573.69 625.853 573.262 625.853 573.12 626.138C572.978 626.422 572.978 626.707 572.978 626.849C572.835 627.418 571.981 627.418 571.554 626.991C571.127 626.564 570.984 625.995 570.984 625.426C570.842 623.718 570.842 622.153 571.269 620.445C570.842 621.726 570.415 623.149 570.13 624.572C569.56 622.438 569.133 620.303 568.564 618.169C568.136 620.019 567.567 621.726 567.14 623.576C566.285 622.58 565.431 621.584 565.004 620.303C565.146 621.868 565.146 623.434 565.289 625.141C565.004 624.145 564.719 623.291 564.434 622.295C564.434 623.718 564.292 625.141 564.007 626.564C562.156 625.426 560.59 623.718 559.451 621.726C559.308 622.722 559.451 623.718 559.593 624.715C559.593 622.865 559.593 621.157 559.593 619.307C558.739 621.157 557.599 622.722 556.318 624.288C555.891 622.58 555.606 620.872 555.179 619.022C554.752 620.303 554.467 621.442 554.04 622.722C553.328 621.868 552.758 620.872 552.331 619.876C552.331 621.015 552.331 622.153 552.189 623.149C551.904 622.011 551.477 620.73 551.05 619.734C550.907 621.442 550.907 623.149 550.765 624.999C549.768 624.43 549.056 623.434 548.914 622.295C548.914 623.718 548.629 625.141 548.059 626.422C547.775 623.718 547.632 621.015 547.347 618.311C546.635 620.445 545.923 622.58 545.496 624.857C545.354 622.438 545.212 619.876 545.212 617.457C544.784 619.307 544.357 621.299 543.788 623.149C542.933 622.011 542.364 620.872 542.079 619.592C541.937 621.015 541.937 622.295 541.794 623.718C541.367 623.149 541.082 622.438 540.655 621.868C540.228 623.149 539.801 624.288 539.374 625.568C537.522 623.292 535.956 620.588 535.102 617.742C534.959 618.738 534.817 619.876 534.675 620.872C534.105 620.161 533.678 619.449 533.108 618.738C532.396 620.303 531.969 622.011 531.684 623.576C531.115 622.011 530.83 620.445 530.83 618.738C530.83 620.73 530.688 622.722 530.688 624.715C529.976 623.291 529.406 621.868 528.979 620.303C528.837 621.584 528.694 622.722 528.552 624.003C526.843 623.149 525.419 621.868 524.423 620.161C524.85 623.576 526.131 626.707 527.982 629.553C528.552 630.407 529.264 631.403 530.261 631.687C531.4 631.972 532.539 631.687 533.393 630.834C534.247 630.122 534.817 628.984 535.244 627.988C535.529 627.418 535.814 626.707 536.241 626.28C536.668 625.853 537.522 625.568 538.092 625.853C538.377 625.995 538.662 626.28 538.804 626.564C539.943 627.988 541.082 629.411 542.079 630.976C542.506 631.545 542.933 632.114 543.645 632.257C544.072 632.399 544.5 632.257 544.927 632.114C547.49 631.403 549.768 629.553 551.05 627.134C551.477 628.13 551.761 629.411 552.046 630.549C552.331 631.687 553.185 632.684 554.324 633.11C555.321 633.395 556.318 633.11 557.172 632.826C557.884 632.684 558.596 632.399 559.308 632.257C559.735 632.114 560.162 631.972 560.59 631.83C561.871 631.118 562.583 629.837 563.153 628.557C563.01 630.122 563.153 631.972 564.434 632.826C564.861 633.11 565.431 633.253 566 633.253C568.991 633.537 571.981 631.118 572.408 628.13C572.266 629.837 572.123 631.83 573.547 632.684C573.974 632.968 574.544 633.11 575.113 633.253C577.392 633.537 579.67 633.395 581.948 632.826" fill="#CCCCCC"/>
</g>
<defs>
<clipPath id="clip0_2138_5336">
<rect width="610" height="698" fill="white" transform="matrix(-1 0 0 1 610 0)"/>
</clipPath>
</defs>
</svg>
