<svg width="156" height="156" viewBox="0 0 156 156" fill="none">
    <path d="M56.6626 95.9024L38.375 110L42.9676 95.4878C42.9676 95.4878 41.1233 95.5448 40.4776 95.4878C40.4776 95.4878 37.3259 95.3543 35.47 94.6585C33.4916 93.9168 32.1501 93 30.905 91.7561C29.6599 90.5122 28.0276 86.7805 28.0276 83.0488C28.0276 79.3171 27.9656 57.3414 28.0276 54.0244C28.0896 50.7073 28.5198 47.3903 30.905 45.3171C33.2902 43.2439 35.9172 42 39.62 42H87.7878C91.3422 42 94.6236 43.4398 96.5026 45.3171C98.5777 47.3903 98.9768 50.7074 98.9928 54.0244C99.0089 57.3414 98.993 82.2194 98.9928 85.5366C98.9927 88.8537 97.5381 90.9269 96.0876 92.5854C94.6372 94.2439 91.1076 95.8788 87.7878 95.9024C84.4679 95.926 56.6626 95.9024 56.6626 95.9024Z" stroke-width="2"/>
    <path d="M104.971 112.768L120.94 125L116.93 112.409C116.93 112.409 118.54 112.458 119.104 112.409C119.104 112.409 121.856 112.293 123.477 111.689C125.205 111.045 126.376 110.25 127.463 109.171C128.55 108.091 129.976 104.854 129.976 101.616C129.976 98.378 130.03 79.311 129.976 76.4329C129.922 73.5549 129.546 70.6769 127.463 68.8781C125.38 67.0793 123.086 66 119.853 66H77.7909C74.6871 66 71.8216 67.2492 70.1808 68.8781C68.3688 70.6769 68.0203 73.5549 68.0063 76.4329C67.9922 79.3109 68.0061 100.896 68.0063 103.774C68.0064 106.652 69.2766 108.451 70.5432 109.89C71.8098 111.329 74.8919 112.748 77.791 112.768C80.69 112.789 104.971 112.768 104.971 112.768Z" stroke-width="2"/>
</svg>
