<svg id="copy" width="12" height="14" viewBox="0 0 12 14" fill="none" xmlns="http://www.w3.org/2000/svg">
<path d="M3.53906 1.91768V9.59176C3.53906 9.93097 3.67278 10.2563 3.91079 10.4962C4.1488 10.736 4.47161 10.8708 4.80821 10.8708H9.88479C10.2214 10.8708 10.5442 10.736 10.7822 10.4962C11.0202 10.2563 11.1539 9.93097 11.1539 9.59176V3.99096C11.1539 3.82057 11.1201 3.6519 11.0545 3.49486C10.9889 3.33782 10.8928 3.19557 10.7719 3.07647L8.66831 1.00319C8.43121 0.769552 8.11279 0.638713 7.78118 0.638672H4.80821C4.47161 0.638672 4.1488 0.773424 3.91079 1.01329C3.67278 1.25315 3.53906 1.57847 3.53906 1.91768V1.91768Z" stroke-linecap="round" stroke-linejoin="round"/>
<path d="M8.61487 10.8705V12.1495C8.61487 12.4888 8.48115 12.8141 8.24314 13.0539C8.00513 13.2938 7.68232 13.4286 7.34572 13.4286H2.26914C1.93255 13.4286 1.60973 13.2938 1.37172 13.0539C1.13371 12.8141 1 12.4888 1 12.1495V5.11495C1 4.77574 1.13371 4.45041 1.37172 4.21055C1.60973 3.97069 1.93255 3.83594 2.26914 3.83594H3.53829" stroke-linecap="round" stroke-linejoin="round"/>
</svg>
