<svg id="delete" width="13" height="14" viewBox="0 0 13 14" fill="none" xmlns="http://www.w3.org/2000/svg">
<path d="M6.47865 4.82235e-09C7.04816 -3.7573e-05 7.59609 0.219544 8.01005 0.613699C8.424 1.00785 8.6726 1.5467 8.70485 2.1197L8.70828 2.24691H12.31C12.4403 2.24695 12.5658 2.29686 12.6611 2.38655C12.7563 2.47624 12.8143 2.59902 12.8231 2.73009C12.832 2.86116 12.7912 2.99074 12.7089 3.09265C12.6267 3.19456 12.5091 3.2612 12.3799 3.27911L12.31 3.28395H11.7639L10.8858 12.2854C10.8418 12.7342 10.6409 13.1526 10.3191 13.4659C9.99724 13.7792 9.57538 13.967 9.12882 13.9959L9.00807 14H3.94924C3.50157 14 3.0685 13.8396 2.72741 13.5474C2.38632 13.2552 2.15945 12.8503 2.08733 12.405L2.07155 12.2847L1.19274 3.28395H0.64734C0.523005 3.28395 0.402876 3.23857 0.309172 3.15621C0.215467 3.07385 0.154524 2.96009 0.137615 2.83595L0.132812 2.76543C0.132818 2.64013 0.177846 2.51907 0.25957 2.42464C0.341293 2.33021 0.454184 2.26879 0.577365 2.25175L0.64734 2.24691H4.24903C4.24903 1.651 4.48394 1.07948 4.90208 0.658106C5.32021 0.236728 5.88732 4.82235e-09 6.47865 4.82235e-09ZM10.73 3.28395H2.2266L3.09581 12.1831C3.11505 12.3817 3.20188 12.5674 3.34156 12.7088C3.48124 12.8502 3.66516 12.9385 3.86211 12.9588L3.94924 12.963H9.00807C9.4197 12.963 9.76889 12.6691 9.84847 12.2702L9.86219 12.1831L10.7293 3.28395H10.73ZM7.67922 5.18519C7.80356 5.18519 7.92368 5.23057 8.01739 5.31293C8.11109 5.39528 8.17204 5.50905 8.18894 5.63319L8.19375 5.7037V10.5432C8.19371 10.6746 8.14419 10.801 8.05519 10.897C7.96619 10.993 7.84435 11.0514 7.71429 11.0604C7.58423 11.0693 7.45565 11.0282 7.35452 10.9453C7.25339 10.8624 7.18726 10.7439 7.16949 10.6137L7.16469 10.5432V5.7037C7.16469 5.56618 7.2189 5.4343 7.31539 5.33706C7.41189 5.23982 7.54276 5.18519 7.67922 5.18519ZM5.27809 5.18519C5.40243 5.18519 5.52255 5.23057 5.61626 5.31293C5.70996 5.39528 5.77091 5.50905 5.78782 5.63319L5.79262 5.7037V10.5432C5.79258 10.6746 5.74306 10.801 5.65406 10.897C5.56506 10.993 5.44322 11.0514 5.31316 11.0604C5.1831 11.0693 5.05452 11.0282 4.95339 10.9453C4.85226 10.8624 4.78613 10.7439 4.76836 10.6137L4.76356 10.5432V5.7037C4.76356 5.56618 4.81777 5.4343 4.91426 5.33706C5.01076 5.23982 5.14163 5.18519 5.27809 5.18519ZM6.47865 1.03704C6.17735 1.03705 5.88707 1.15123 5.66543 1.35691C5.44379 1.5626 5.307 1.84475 5.28221 2.14736L5.27809 2.24691H7.67922C7.67922 1.92603 7.55273 1.6183 7.32758 1.3914C7.10243 1.16451 6.79706 1.03704 6.47865 1.03704Z"/>
</svg>
