<svg id="eye" width="22" height="18" viewBox="0 0 22 18" fill="none" xmlns="http://www.w3.org/2000/svg">
<path d="M21.0893 8.56255C20.2846 6.68884 18.8815 5.06553 17.0529 3.89264L20.4271 0.883836L19.4339 0L0.703125 16.6675L1.69637 17.5514L5.28895 14.3608C6.89253 15.1924 8.70931 15.6435 10.5651 15.6709C12.8612 15.594 15.0816 14.9202 16.952 13.7326C18.8224 12.5451 20.2607 10.8958 21.0893 8.9888C21.1452 8.85108 21.1452 8.70027 21.0893 8.56255ZM10.5651 12.8501C9.59413 12.8497 8.64875 12.5729 7.86715 12.0603L9.15626 10.9257C9.69077 11.1863 10.3058 11.2857 10.9092 11.2089C11.5125 11.1321 12.0716 10.8833 12.5026 10.4998C12.9336 10.1163 13.2132 9.61875 13.2995 9.08186C13.3858 8.54497 13.2742 7.99765 12.9813 7.52201L14.2563 6.38744C14.7526 6.99396 15.0507 7.71078 15.1177 8.45866C15.1847 9.20654 15.018 9.95634 14.636 10.6252C14.254 11.294 13.6715 11.8558 12.9531 12.2484C12.2347 12.6411 11.4082 12.8493 10.5651 12.8501Z"/>
<path d="M2.48634 12.4179L6.00849 9.28373C5.99017 9.11501 5.98312 8.94546 5.98736 8.776C5.98922 7.69591 6.47223 6.66053 7.33051 5.89679C8.1888 5.13305 9.35235 4.70326 10.5662 4.7016C10.7522 4.70248 10.938 4.71294 11.1227 4.73294L13.7854 2.36979C12.7491 2.05305 11.6619 1.88794 10.5662 1.88086C8.27008 1.95769 6.04962 2.63152 4.17923 3.81907C2.30883 5.00662 0.870489 6.65583 0.0419661 8.56287C-0.0139887 8.70059 -0.0139887 8.8514 0.0419661 8.98912C0.582987 10.2695 1.41513 11.4368 2.48634 12.4179Z"/>
</svg>
