<svg width="156" height="156" viewBox="0 0 156 156" fill="none" xmlns="http://www.w3.org/2000/svg">
<circle cx="78" cy="78" r="75.5" stroke="#CCCCCC" stroke-width="5"/>
<path d="M69.5332 107L47.5 124L53.0332 106.5C53.0332 106.5 50.8112 106.569 50.0332 106.5C50.0332 106.5 46.236 106.339 44 105.5C41.6164 104.606 40.0001 103.5 38.5 102C36.9999 100.5 35.0332 96 35.0332 91.5C35.0332 87 34.9585 60.5 35.0332 56.5C35.1079 52.5 35.6262 48.5001 38.5 46C41.3738 43.5 44.5388 42 49 42H107.033C111.316 42 115.269 43.7362 117.533 46C120.033 48.5 120.514 52.5 120.533 56.5C120.553 60.5 120.533 90.4999 120.533 94.5C120.533 98.5 118.781 101 117.033 103C115.286 105 111.033 106.971 107.033 107C103.033 107.028 69.5332 107 69.5332 107Z" stroke="#CCCCCC" stroke-width="5"/>
<circle cx="58.5" cy="74.5" r="5.5" fill="#CCCCCC"/>
<circle cx="78.5" cy="74.5" r="5.5" fill="#CCCCCC"/>
<circle cx="98.5" cy="74.5" r="5.5" fill="#CCCCCC"/>
</svg>
