<svg width="52" height="52" viewBox="0 0 52 52" fill="none" xmlns="http://www.w3.org/2000/svg">
<path d="M26 5.2C20.4835 5.2 15.1929 7.39142 11.2922 11.2922C7.39142 15.1929 5.2 20.4835 5.2 26C5.2 31.5165 7.39142 36.8071 11.2922 40.7078C15.1929 44.6086 20.4835 46.8 26 46.8C31.5165 46.8 36.8071 44.6086 40.7078 40.7078C44.6086 36.8071 46.8 31.5165 46.8 26C46.8 20.4835 44.6086 15.1929 40.7078 11.2922C36.8071 7.39142 31.5165 5.2 26 5.2ZM0 26C0 11.6402 11.6402 0 26 0C40.3598 0 52 11.6402 52 26C52 40.3598 40.3598 52 26 52C11.6402 52 0 40.3598 0 26Z" fill="black" fill-opacity="0.25"/>
<path d="M26.0016 31.2004C25.312 31.2004 24.6507 30.9265 24.1631 30.4389C23.6755 29.9513 23.4016 29.29 23.4016 28.6004V13.0004C23.4016 12.3108 23.6755 11.6495 24.1631 11.1619C24.6507 10.6743 25.312 10.4004 26.0016 10.4004C26.6911 10.4004 27.3524 10.6743 27.84 11.1619C28.3276 11.6495 28.6016 12.3108 28.6016 13.0004V28.6004C28.6016 29.29 28.3276 29.9513 27.84 30.4389C27.3524 30.9265 26.6911 31.2004 26.0016 31.2004ZM22.1016 37.7004C22.1016 36.666 22.5125 35.6741 23.2438 34.9427C23.9752 34.2113 24.9672 33.8004 26.0016 33.8004C27.0359 33.8004 28.0279 34.2113 28.7593 34.9427C29.4907 35.6741 29.9016 36.666 29.9016 37.7004C29.9016 38.7347 29.4907 39.7267 28.7593 40.4581C28.0279 41.1895 27.0359 41.6004 26.0016 41.6004C24.9672 41.6004 23.9752 41.1895 23.2438 40.4581C22.5125 39.7267 22.1016 38.7347 22.1016 37.7004Z" fill="black" fill-opacity="0.25"/>
</svg>
