<svg width="10" height="10" viewBox="0 0 10 10" fill="none" xmlns="http://www.w3.org/2000/svg">
<circle cx="5" cy="5" r="5" fill="#DDDDDD"/>
<path d="M4.04297 6.05859V5.80859C4.04297 5.52214 4.09505 5.28385 4.19922 5.09375C4.30339 4.90365 4.48568 4.70703 4.74609 4.50391C5.05599 4.25911 5.25521 4.06901 5.34375 3.93359C5.4349 3.79818 5.48047 3.63672 5.48047 3.44922C5.48047 3.23047 5.40755 3.0625 5.26172 2.94531C5.11589 2.82812 4.90625 2.76953 4.63281 2.76953C4.38542 2.76953 4.15625 2.80469 3.94531 2.875C3.73438 2.94531 3.52865 3.02995 3.32812 3.12891L3 2.44141C3.52865 2.14714 4.09505 2 4.69922 2C5.20964 2 5.61458 2.125 5.91406 2.375C6.21354 2.625 6.36328 2.97005 6.36328 3.41016C6.36328 3.60547 6.33464 3.77995 6.27734 3.93359C6.22005 4.08464 6.13281 4.22917 6.01562 4.36719C5.90104 4.50521 5.70182 4.6849 5.41797 4.90625C5.17578 5.09635 5.01302 5.25391 4.92969 5.37891C4.84896 5.50391 4.80859 5.67188 4.80859 5.88281V6.05859H4.04297ZM3.88281 7.30469C3.88281 6.91146 4.07422 6.71484 4.45703 6.71484C4.64453 6.71484 4.78776 6.76693 4.88672 6.87109C4.98568 6.97266 5.03516 7.11719 5.03516 7.30469C5.03516 7.48958 4.98438 7.63672 4.88281 7.74609C4.78385 7.85286 4.64193 7.90625 4.45703 7.90625C4.27214 7.90625 4.13021 7.85417 4.03125 7.75C3.93229 7.64323 3.88281 7.49479 3.88281 7.30469Z" fill="#FAFAFA"/>
</svg>
