<svg width="14" height="18" viewBox="0 0 14 18" fill="none" xmlns="http://www.w3.org/2000/svg">
<path d="M2.38266 18V14.736H0.294657V13.176H2.38266V11.04H0.294657V9.216H2.38266V0.863999H6.89466C8.99066 0.863999 10.5427 1.288 11.5507 2.136C12.5747 2.984 13.0867 4.216 13.0867 5.832C13.0867 7.464 12.5347 8.744 11.4307 9.672C10.3267 10.584 8.70266 11.04 6.55866 11.04H4.54266V13.176H8.50266V14.736H4.54266V18H2.38266ZM6.24666 9.216C7.70266 9.216 8.83066 8.976 9.63066 8.496C10.4467 8.016 10.8547 7.152 10.8547 5.904C10.8547 4.816 10.5187 4.008 9.84666 3.48C9.17466 2.952 8.12666 2.688 6.70266 2.688H4.54266V9.216H6.24666Z" fill="#E4E4E4"/>
</svg>
