<svg id="m2" width="24" height="18" viewBox="0 0 24 18" fill="none" xmlns="http://www.w3.org/2000/svg">
<path d="M6.73828 16.125L7.10156 15.0352L7.60547 13.6523L11.0859 5.17969H13.5586V18H11.8359V7.39453L11.6016 8.07422L10.9219 9.86719L7.60547 18H5.97656L2.66016 9.84375C2.24609 8.79688 1.96094 7.98047 1.80469 7.39453V18H0.0703125V5.17969H2.44922L5.8125 13.3242C6.14844 14.1836 6.45703 15.1172 6.73828 16.125ZM23.3086 11.1328H16.2305V9.91406L18.9961 7.21875C19.6914 6.54688 20.1992 6.02344 20.5195 5.64844C20.8398 5.26562 21.0625 4.92578 21.1875 4.62891C21.3203 4.33203 21.3867 3.97266 21.3867 3.55078C21.3867 3.01953 21.2305 2.62109 20.918 2.35547C20.6055 2.08203 20.2031 1.94531 19.7109 1.94531C19.3047 1.94531 18.9102 2.01953 18.5273 2.16797C18.1445 2.31641 17.6836 2.58594 17.1445 2.97656L16.3711 1.94531C17.3945 1.07812 18.5 0.644531 19.6875 0.644531C20.7188 0.644531 21.5195 0.898438 22.0898 1.40625C22.668 1.91406 22.957 2.60547 22.957 3.48047C22.957 4.10547 22.7812 4.71484 22.4297 5.30859C22.0859 5.89453 21.3398 6.72656 20.1914 7.80469L18.1523 9.73828H23.3086V11.1328Z" fill="#E4E4E4"/>
</svg>
